<?xml version="1.0" standalone="no"?><!-- Generator: Gravit.io --><svg xmlns="http://www.w3.org/2000/svg" xmlns:xlink="http://www.w3.org/1999/xlink" style="isolation:isolate" viewBox="0 0 203 203" width="203" height="203"><defs><clipPath id="_clipPath_AO9ZYZPEzKAMpSWrXzaLMBRtoLgMlTiC"><rect width="203" height="203"/></clipPath></defs><g clip-path="url(#_clipPath_AO9ZYZPEzKAMpSWrXzaLMBRtoLgMlTiC)"><rect x="75.5" y="0" width="60" height="203" transform="matrix(1,0,0,1,0,0)" fill="rgb(0,150,136)"/><rect x="71.5" y="-1" width="60" height="203" transform="matrix(0,-1,1,0,1,202)" fill="rgb(0,150,136)"/><rect x="33" y="28" width="145" height="145" transform="matrix(-1,0,0,-1,211,201)" fill="rgb(0,150,136)"/><path d=" M 49 100.5 C 49 69.317 74.317 44 105.5 44 C 136.683 44 162 69.317 162 100.5 C 162 131.683 136.683 157 105.5 157 C 74.317 157 49 131.683 49 100.5 Z " fill="rgb(235,235,235)"/></g></svg>