<?xml version="1.0" standalone="no"?><!-- Generator: Gravit.io --><svg xmlns="http://www.w3.org/2000/svg" xmlns:xlink="http://www.w3.org/1999/xlink" style="isolation:isolate" viewBox="0 0 359 23" width="359" height="23"><defs><clipPath id="_clipPath_mDhS2a9PUiNoSNMq16WvoAIOZhOe9aDO"><rect width="359" height="23"/></clipPath></defs><g clip-path="url(#_clipPath_mDhS2a9PUiNoSNMq16WvoAIOZhOe9aDO)"><clipPath id="_clipPath_mMsOc594kqd2p6CJDdHlDF5agkG9w1KR"><rect x="0" y="0" width="359" height="23" transform="matrix(1,0,0,1,0,0)" fill="rgb(255,255,255)"/></clipPath><g clip-path="url(#_clipPath_mMsOc594kqd2p6CJDdHlDF5agkG9w1KR)"/><path d=" M 244.192 17.148 L 241.984 17.148 L 241.984 5.788 L 247.008 5.788 L 247.008 5.788 Q 247.792 5.788 248.456 6.116 L 248.456 6.116 L 248.456 6.116 Q 249.12 6.444 249.6 6.98 L 249.6 6.98 L 249.6 6.98 Q 250.08 7.516 250.352 8.196 L 250.352 8.196 L 250.352 8.196 Q 250.624 8.876 250.624 9.564 L 250.624 9.564 L 250.624 9.564 Q 250.624 10.668 250.072 11.572 L 250.072 11.572 L 250.072 11.572 Q 249.52 12.476 248.576 12.876 L 248.576 12.876 L 251.168 17.148 L 248.688 17.148 L 246.368 13.34 L 244.192 13.34 L 244.192 17.148 L 244.192 17.148 Z  M 244.192 7.724 L 244.192 11.404 L 246.96 11.404 L 246.96 11.404 Q 247.264 11.404 247.528 11.26 L 247.528 11.26 L 247.528 11.26 Q 247.792 11.116 247.984 10.868 L 247.984 10.868 L 247.984 10.868 Q 248.176 10.62 248.288 10.284 L 248.288 10.284 L 248.288 10.284 Q 248.4 9.948 248.4 9.564 L 248.4 9.564 L 248.4 9.564 Q 248.4 9.164 248.272 8.828 L 248.272 8.828 L 248.272 8.828 Q 248.144 8.492 247.928 8.244 L 247.928 8.244 L 247.928 8.244 Q 247.712 7.996 247.432 7.86 L 247.432 7.86 L 247.432 7.86 Q 247.152 7.724 246.864 7.724 L 246.864 7.724 L 244.192 7.724 L 244.192 7.724 Z  M 254.832 15.212 L 260.512 15.212 L 260.512 17.148 L 252.624 17.148 L 252.624 5.788 L 260.368 5.788 L 260.368 7.724 L 254.832 7.724 L 254.832 10.46 L 259.616 10.46 L 259.616 12.252 L 254.832 12.252 L 254.832 15.212 L 254.832 15.212 Z  M 270.128 17.148 L 270.128 15.868 L 270.128 15.868 Q 268.768 17.228 266.96 17.228 L 266.96 17.228 L 266.96 17.228 Q 265.84 17.228 264.856 16.78 L 264.856 16.78 L 264.856 16.78 Q 263.872 16.332 263.144 15.548 L 263.144 15.548 L 263.144 15.548 Q 262.416 14.764 261.992 13.7 L 261.992 13.7 L 261.992 13.7 Q 261.568 12.636 261.568 11.404 L 261.568 11.404 L 261.568 11.404 Q 261.568 10.236 261.992 9.204 L 261.992 9.204 L 261.992 9.204 Q 262.416 8.172 263.16 7.396 L 263.16 7.396 L 263.16 7.396 Q 263.904 6.62 264.912 6.164 L 264.912 6.164 L 264.912 6.164 Q 265.92 5.708 267.104 5.708 L 267.104 5.708 L 267.104 5.708 Q 268.704 5.708 269.848 6.38 L 269.848 6.38 L 269.848 6.38 Q 270.992 7.052 271.568 8.188 L 271.568 8.188 L 269.92 9.404 L 269.92 9.404 Q 269.488 8.556 268.712 8.108 L 268.712 8.108 L 268.712 8.108 Q 267.936 7.66 267.024 7.66 L 267.024 7.66 L 267.024 7.66 Q 266.304 7.66 265.704 7.964 L 265.704 7.964 L 265.704 7.964 Q 265.104 8.268 264.68 8.796 L 264.68 8.796 L 264.68 8.796 Q 264.256 9.324 264.024 10.012 L 264.024 10.012 L 264.024 10.012 Q 263.792 10.7 263.792 11.468 L 263.792 11.468 L 263.792 11.468 Q 263.792 12.268 264.048 12.964 L 264.048 12.964 L 264.048 12.964 Q 264.304 13.66 264.752 14.172 L 264.752 14.172 L 264.752 14.172 Q 265.2 14.684 265.816 14.98 L 265.816 14.98 L 265.816 14.98 Q 266.432 15.276 267.152 15.276 L 267.152 15.276 L 267.152 15.276 Q 268.8 15.276 270.128 13.724 L 270.128 13.724 L 270.128 12.924 L 267.84 12.924 L 267.84 11.308 L 271.952 11.308 L 271.952 17.148 L 270.128 17.148 L 270.128 17.148 Z  M 276.048 17.148 L 273.84 17.148 L 273.84 5.788 L 276.048 5.788 L 276.048 17.148 L 276.048 17.148 Z  M 286.16 6.972 L 285.184 8.764 L 285.184 8.764 Q 285.072 8.652 284.776 8.46 L 284.776 8.46 L 284.776 8.46 Q 284.48 8.268 284.056 8.084 L 284.056 8.084 L 284.056 8.084 Q 283.632 7.9 283.136 7.772 L 283.136 7.772 L 283.136 7.772 Q 282.64 7.644 282.128 7.644 L 282.128 7.644 L 282.128 7.644 Q 281.216 7.644 280.768 7.98 L 280.768 7.98 L 280.768 7.98 Q 280.32 8.316 280.32 8.924 L 280.32 8.924 L 280.32 8.924 Q 280.32 9.276 280.488 9.508 L 280.488 9.508 L 280.488 9.508 Q 280.656 9.74 280.976 9.916 L 280.976 9.916 L 280.976 9.916 Q 281.296 10.092 281.784 10.236 L 281.784 10.236 L 281.784 10.236 Q 282.272 10.38 282.912 10.54 L 282.912 10.54 L 282.912 10.54 Q 283.744 10.764 284.424 11.02 L 284.424 11.02 L 284.424 11.02 Q 285.104 11.276 285.576 11.66 L 285.576 11.66 L 285.576 11.66 Q 286.048 12.044 286.304 12.58 L 286.304 12.58 L 286.304 12.58 Q 286.56 13.116 286.56 13.9 L 286.56 13.9 L 286.56 13.9 Q 286.56 14.812 286.216 15.46 L 286.216 15.46 L 286.216 15.46 Q 285.872 16.108 285.288 16.508 L 285.288 16.508 L 285.288 16.508 Q 284.704 16.908 283.944 17.092 L 283.944 17.092 L 283.944 17.092 Q 283.184 17.276 282.352 17.276 L 282.352 17.276 L 282.352 17.276 Q 281.072 17.276 279.824 16.892 L 279.824 16.892 L 279.824 16.892 Q 278.576 16.508 277.584 15.804 L 277.584 15.804 L 278.56 13.9 L 278.56 13.9 Q 278.704 14.044 279.08 14.276 L 279.08 14.276 L 279.08 14.276 Q 279.456 14.508 279.968 14.74 L 279.968 14.74 L 279.968 14.74 Q 280.48 14.972 281.104 15.132 L 281.104 15.132 L 281.104 15.132 Q 281.728 15.292 282.384 15.292 L 282.384 15.292 L 282.384 15.292 Q 284.208 15.292 284.208 14.124 L 284.208 14.124 L 284.208 14.124 Q 284.208 13.756 284 13.5 L 284 13.5 L 284 13.5 Q 283.792 13.244 283.408 13.052 L 283.408 13.052 L 283.408 13.052 Q 283.024 12.86 282.48 12.7 L 282.48 12.7 L 282.48 12.7 Q 281.936 12.54 281.264 12.348 L 281.264 12.348 L 281.264 12.348 Q 280.448 12.124 279.848 11.86 L 279.848 11.86 L 279.848 11.86 Q 279.248 11.596 278.848 11.236 L 278.848 11.236 L 278.848 11.236 Q 278.448 10.876 278.248 10.404 L 278.248 10.404 L 278.248 10.404 Q 278.048 9.932 278.048 9.276 L 278.048 9.276 L 278.048 9.276 Q 278.048 8.412 278.368 7.74 L 278.368 7.74 L 278.368 7.74 Q 278.688 7.068 279.256 6.62 L 279.256 6.62 L 279.256 6.62 Q 279.824 6.172 280.576 5.94 L 280.576 5.94 L 280.576 5.94 Q 281.328 5.708 282.192 5.708 L 282.192 5.708 L 282.192 5.708 Q 283.392 5.708 284.4 6.084 L 284.4 6.084 L 284.4 6.084 Q 285.408 6.46 286.16 6.972 L 286.16 6.972 L 286.16 6.972 Z  M 296.72 5.788 L 296.72 7.724 L 293.088 7.724 L 293.088 17.148 L 290.896 17.148 L 290.896 7.724 L 287.264 7.724 L 287.264 5.788 L 296.72 5.788 L 296.72 5.788 Z  M 300.336 17.148 L 298.128 17.148 L 298.128 5.788 L 303.152 5.788 L 303.152 5.788 Q 303.936 5.788 304.6 6.116 L 304.6 6.116 L 304.6 6.116 Q 305.264 6.444 305.744 6.98 L 305.744 6.98 L 305.744 6.98 Q 306.224 7.516 306.496 8.196 L 306.496 8.196 L 306.496 8.196 Q 306.768 8.876 306.768 9.564 L 306.768 9.564 L 306.768 9.564 Q 306.768 10.668 306.216 11.572 L 306.216 11.572 L 306.216 11.572 Q 305.664 12.476 304.72 12.876 L 304.72 12.876 L 307.312 17.148 L 304.832 17.148 L 302.512 13.34 L 300.336 13.34 L 300.336 17.148 L 300.336 17.148 Z  M 300.336 7.724 L 300.336 11.404 L 303.104 11.404 L 303.104 11.404 Q 303.408 11.404 303.672 11.26 L 303.672 11.26 L 303.672 11.26 Q 303.936 11.116 304.128 10.868 L 304.128 10.868 L 304.128 10.868 Q 304.32 10.62 304.432 10.284 L 304.432 10.284 L 304.432 10.284 Q 304.544 9.948 304.544 9.564 L 304.544 9.564 L 304.544 9.564 Q 304.544 9.164 304.416 8.828 L 304.416 8.828 L 304.416 8.828 Q 304.288 8.492 304.072 8.244 L 304.072 8.244 L 304.072 8.244 Q 303.856 7.996 303.576 7.86 L 303.576 7.86 L 303.576 7.86 Q 303.296 7.724 303.008 7.724 L 303.008 7.724 L 300.336 7.724 L 300.336 7.724 Z  M 313.616 17.228 L 313.616 17.228 L 313.616 17.228 Q 312.368 17.228 311.352 16.74 L 311.352 16.74 L 311.352 16.74 Q 310.336 16.252 309.608 15.444 L 309.608 15.444 L 309.608 15.444 Q 308.88 14.636 308.48 13.596 L 308.48 13.596 L 308.48 13.596 Q 308.08 12.556 308.08 11.468 L 308.08 11.468 L 308.08 11.468 Q 308.08 10.332 308.504 9.292 L 308.504 9.292 L 308.504 9.292 Q 308.928 8.252 309.672 7.452 L 309.672 7.452 L 309.672 7.452 Q 310.416 6.652 311.44 6.18 L 311.44 6.18 L 311.44 6.18 Q 312.464 5.708 313.664 5.708 L 313.664 5.708 L 313.664 5.708 Q 314.896 5.708 315.912 6.212 L 315.912 6.212 L 315.912 6.212 Q 316.928 6.716 317.648 7.532 L 317.648 7.532 L 317.648 7.532 Q 318.368 8.348 318.768 9.388 L 318.768 9.388 L 318.768 9.388 Q 319.168 10.428 319.168 11.5 L 319.168 11.5 L 319.168 11.5 Q 319.168 12.636 318.752 13.668 L 318.752 13.668 L 318.752 13.668 Q 318.336 14.7 317.6 15.492 L 317.6 15.492 L 317.6 15.492 Q 316.864 16.284 315.84 16.756 L 315.84 16.756 L 315.84 16.756 Q 314.816 17.228 313.616 17.228 Z  M 310.32 11.468 L 310.32 11.468 L 310.32 11.468 Q 310.32 12.204 310.544 12.892 L 310.544 12.892 L 310.544 12.892 Q 310.768 13.58 311.192 14.108 L 311.192 14.108 L 311.192 14.108 Q 311.616 14.636 312.232 14.956 L 312.232 14.956 L 312.232 14.956 Q 312.848 15.276 313.632 15.276 L 313.632 15.276 L 313.632 15.276 Q 314.432 15.276 315.048 14.948 L 315.048 14.948 L 315.048 14.948 Q 315.664 14.62 316.088 14.076 L 316.088 14.076 L 316.088 14.076 Q 316.512 13.532 316.728 12.852 L 316.728 12.852 L 316.728 12.852 Q 316.944 12.172 316.944 11.468 L 316.944 11.468 L 316.944 11.468 Q 316.944 10.732 316.712 10.044 L 316.712 10.044 L 316.712 10.044 Q 316.48 9.356 316.056 8.828 L 316.056 8.828 L 316.056 8.828 Q 315.632 8.3 315.016 7.988 L 315.016 7.988 L 315.016 7.988 Q 314.4 7.676 313.632 7.676 L 313.632 7.676 L 313.632 7.676 Q 312.832 7.676 312.208 8.004 L 312.208 8.004 L 312.208 8.004 Q 311.584 8.332 311.168 8.868 L 311.168 8.868 L 311.168 8.868 Q 310.752 9.404 310.536 10.084 L 310.536 10.084 L 310.536 10.084 Q 310.32 10.764 310.32 11.468 Z  M 328.608 6.972 L 327.632 8.764 L 327.632 8.764 Q 327.52 8.652 327.224 8.46 L 327.224 8.46 L 327.224 8.46 Q 326.928 8.268 326.504 8.084 L 326.504 8.084 L 326.504 8.084 Q 326.08 7.9 325.584 7.772 L 325.584 7.772 L 325.584 7.772 Q 325.088 7.644 324.576 7.644 L 324.576 7.644 L 324.576 7.644 Q 323.664 7.644 323.216 7.98 L 323.216 7.98 L 323.216 7.98 Q 322.768 8.316 322.768 8.924 L 322.768 8.924 L 322.768 8.924 Q 322.768 9.276 322.936 9.508 L 322.936 9.508 L 322.936 9.508 Q 323.104 9.74 323.424 9.916 L 323.424 9.916 L 323.424 9.916 Q 323.744 10.092 324.232 10.236 L 324.232 10.236 L 324.232 10.236 Q 324.72 10.38 325.36 10.54 L 325.36 10.54 L 325.36 10.54 Q 326.192 10.764 326.872 11.02 L 326.872 11.02 L 326.872 11.02 Q 327.552 11.276 328.024 11.66 L 328.024 11.66 L 328.024 11.66 Q 328.496 12.044 328.752 12.58 L 328.752 12.58 L 328.752 12.58 Q 329.008 13.116 329.008 13.9 L 329.008 13.9 L 329.008 13.9 Q 329.008 14.812 328.664 15.46 L 328.664 15.46 L 328.664 15.46 Q 328.32 16.108 327.736 16.508 L 327.736 16.508 L 327.736 16.508 Q 327.152 16.908 326.392 17.092 L 326.392 17.092 L 326.392 17.092 Q 325.632 17.276 324.8 17.276 L 324.8 17.276 L 324.8 17.276 Q 323.52 17.276 322.272 16.892 L 322.272 16.892 L 322.272 16.892 Q 321.024 16.508 320.032 15.804 L 320.032 15.804 L 321.008 13.9 L 321.008 13.9 Q 321.152 14.044 321.528 14.276 L 321.528 14.276 L 321.528 14.276 Q 321.904 14.508 322.416 14.74 L 322.416 14.74 L 322.416 14.74 Q 322.928 14.972 323.552 15.132 L 323.552 15.132 L 323.552 15.132 Q 324.176 15.292 324.832 15.292 L 324.832 15.292 L 324.832 15.292 Q 326.656 15.292 326.656 14.124 L 326.656 14.124 L 326.656 14.124 Q 326.656 13.756 326.448 13.5 L 326.448 13.5 L 326.448 13.5 Q 326.24 13.244 325.856 13.052 L 325.856 13.052 L 325.856 13.052 Q 325.472 12.86 324.928 12.7 L 324.928 12.7 L 324.928 12.7 Q 324.384 12.54 323.712 12.348 L 323.712 12.348 L 323.712 12.348 Q 322.896 12.124 322.296 11.86 L 322.296 11.86 L 322.296 11.86 Q 321.696 11.596 321.296 11.236 L 321.296 11.236 L 321.296 11.236 Q 320.896 10.876 320.696 10.404 L 320.696 10.404 L 320.696 10.404 Q 320.496 9.932 320.496 9.276 L 320.496 9.276 L 320.496 9.276 Q 320.496 8.412 320.816 7.74 L 320.816 7.74 L 320.816 7.74 Q 321.136 7.068 321.704 6.62 L 321.704 6.62 L 321.704 6.62 Q 322.272 6.172 323.024 5.94 L 323.024 5.94 L 323.024 5.94 Q 323.776 5.708 324.64 5.708 L 324.64 5.708 L 324.64 5.708 Q 325.84 5.708 326.848 6.084 L 326.848 6.084 L 326.848 6.084 Q 327.856 6.46 328.608 6.972 L 328.608 6.972 L 328.608 6.972 Z  M 221.2 17.148 L 217.072 17.148 L 217.072 5.788 L 221.2 5.788 L 221.2 5.788 Q 222.592 5.788 223.64 6.236 L 223.64 6.236 L 223.64 6.236 Q 224.688 6.684 225.392 7.452 L 225.392 7.452 L 225.392 7.452 Q 226.096 8.22 226.448 9.252 L 226.448 9.252 L 226.448 9.252 Q 226.8 10.284 226.8 11.452 L 226.8 11.452 L 226.8 11.452 Q 226.8 12.748 226.408 13.796 L 226.408 13.796 L 226.408 13.796 Q 226.016 14.844 225.28 15.588 L 225.28 15.588 L 225.28 15.588 Q 224.544 16.332 223.512 16.74 L 223.512 16.74 L 223.512 16.74 Q 222.48 17.148 221.2 17.148 L 221.2 17.148 L 221.2 17.148 Z  M 224.576 11.452 L 224.576 11.452 L 224.576 11.452 Q 224.576 10.636 224.352 9.948 L 224.352 9.948 L 224.352 9.948 Q 224.128 9.26 223.696 8.764 L 223.696 8.764 L 223.696 8.764 Q 223.264 8.268 222.632 7.996 L 222.632 7.996 L 222.632 7.996 Q 222 7.724 221.2 7.724 L 221.2 7.724 L 219.28 7.724 L 219.28 15.212 L 221.2 15.212 L 221.2 15.212 Q 222.016 15.212 222.648 14.924 L 222.648 14.924 L 222.648 14.924 Q 223.28 14.636 223.704 14.132 L 223.704 14.132 L 223.704 14.132 Q 224.128 13.628 224.352 12.94 L 224.352 12.94 L 224.352 12.94 Q 224.576 12.252 224.576 11.452 Z  M 230.736 15.212 L 236.416 15.212 L 236.416 17.148 L 228.528 17.148 L 228.528 5.788 L 236.272 5.788 L 236.272 7.724 L 230.736 7.724 L 230.736 10.46 L 235.52 10.46 L 235.52 12.252 L 230.736 12.252 L 230.736 15.212 L 230.736 15.212 Z  M 138.368 17.148 L 132.528 9.868 L 132.528 17.148 L 130.32 17.148 L 130.32 5.788 L 132.032 5.788 L 137.952 13.244 L 137.952 5.804 L 140.16 5.804 L 140.16 17.148 L 138.368 17.148 L 138.368 17.148 Z  M 141.424 17.148 L 145.76 5.788 L 147.712 5.788 L 152.032 17.148 L 149.76 17.148 L 148.704 14.316 L 144.736 14.316 L 143.696 17.148 L 141.424 17.148 L 141.424 17.148 Z  M 145.104 12.764 L 148.304 12.764 L 146.736 8.3 L 145.104 12.764 L 145.104 12.764 Z  M 152.592 11.388 L 152.592 11.388 L 152.592 11.388 Q 152.592 10.348 152.968 9.332 L 152.968 9.332 L 152.968 9.332 Q 153.344 8.316 154.064 7.516 L 154.064 7.516 L 154.064 7.516 Q 154.784 6.716 155.824 6.22 L 155.824 6.22 L 155.824 6.22 Q 156.864 5.724 158.192 5.724 L 158.192 5.724 L 158.192 5.724 Q 159.76 5.724 160.904 6.412 L 160.904 6.412 L 160.904 6.412 Q 162.048 7.1 162.608 8.204 L 162.608 8.204 L 160.912 9.372 L 160.912 9.372 Q 160.688 8.892 160.368 8.564 L 160.368 8.564 L 160.368 8.564 Q 160.048 8.236 159.68 8.044 L 159.68 8.044 L 159.68 8.044 Q 159.312 7.852 158.912 7.764 L 158.912 7.764 L 158.912 7.764 Q 158.512 7.676 158.128 7.676 L 158.128 7.676 L 158.128 7.676 Q 157.296 7.676 156.68 8.012 L 156.68 8.012 L 156.68 8.012 Q 156.064 8.348 155.656 8.884 L 155.656 8.884 L 155.656 8.884 Q 155.248 9.42 155.04 10.1 L 155.04 10.1 L 155.04 10.1 Q 154.832 10.78 154.832 11.452 L 154.832 11.452 L 154.832 11.452 Q 154.832 12.204 155.072 12.9 L 155.072 12.9 L 155.072 12.9 Q 155.312 13.596 155.752 14.124 L 155.752 14.124 L 155.752 14.124 Q 156.192 14.652 156.808 14.972 L 156.808 14.972 L 156.808 14.972 Q 157.424 15.292 158.16 15.292 L 158.16 15.292 L 158.16 15.292 Q 158.544 15.292 158.96 15.196 L 158.96 15.196 L 158.96 15.196 Q 159.376 15.1 159.752 14.892 L 159.752 14.892 L 159.752 14.892 Q 160.128 14.684 160.448 14.356 L 160.448 14.356 L 160.448 14.356 Q 160.768 14.028 160.96 13.564 L 160.96 13.564 L 162.768 14.604 L 162.768 14.604 Q 162.496 15.244 161.992 15.732 L 161.992 15.732 L 161.992 15.732 Q 161.488 16.22 160.856 16.556 L 160.856 16.556 L 160.856 16.556 Q 160.224 16.892 159.504 17.068 L 159.504 17.068 L 159.504 17.068 Q 158.784 17.244 158.096 17.244 L 158.096 17.244 L 158.096 17.244 Q 156.88 17.244 155.872 16.732 L 155.872 16.732 L 155.872 16.732 Q 154.864 16.22 154.136 15.396 L 154.136 15.396 L 154.136 15.396 Q 153.408 14.572 153 13.524 L 153 13.524 L 153 13.524 Q 152.592 12.476 152.592 11.388 Z  M 166.464 17.148 L 164.256 17.148 L 164.256 5.788 L 166.464 5.788 L 166.464 17.148 L 166.464 17.148 Z  M 173.68 17.228 L 173.68 17.228 L 173.68 17.228 Q 172.432 17.228 171.416 16.74 L 171.416 16.74 L 171.416 16.74 Q 170.4 16.252 169.672 15.444 L 169.672 15.444 L 169.672 15.444 Q 168.944 14.636 168.544 13.596 L 168.544 13.596 L 168.544 13.596 Q 168.144 12.556 168.144 11.468 L 168.144 11.468 L 168.144 11.468 Q 168.144 10.332 168.568 9.292 L 168.568 9.292 L 168.568 9.292 Q 168.992 8.252 169.736 7.452 L 169.736 7.452 L 169.736 7.452 Q 170.48 6.652 171.504 6.18 L 171.504 6.18 L 171.504 6.18 Q 172.528 5.708 173.728 5.708 L 173.728 5.708 L 173.728 5.708 Q 174.96 5.708 175.976 6.212 L 175.976 6.212 L 175.976 6.212 Q 176.992 6.716 177.712 7.532 L 177.712 7.532 L 177.712 7.532 Q 178.432 8.348 178.832 9.388 L 178.832 9.388 L 178.832 9.388 Q 179.232 10.428 179.232 11.5 L 179.232 11.5 L 179.232 11.5 Q 179.232 12.636 178.816 13.668 L 178.816 13.668 L 178.816 13.668 Q 178.4 14.7 177.664 15.492 L 177.664 15.492 L 177.664 15.492 Q 176.928 16.284 175.904 16.756 L 175.904 16.756 L 175.904 16.756 Q 174.88 17.228 173.68 17.228 Z  M 170.384 11.468 L 170.384 11.468 L 170.384 11.468 Q 170.384 12.204 170.608 12.892 L 170.608 12.892 L 170.608 12.892 Q 170.832 13.58 171.256 14.108 L 171.256 14.108 L 171.256 14.108 Q 171.68 14.636 172.296 14.956 L 172.296 14.956 L 172.296 14.956 Q 172.912 15.276 173.696 15.276 L 173.696 15.276 L 173.696 15.276 Q 174.496 15.276 175.112 14.948 L 175.112 14.948 L 175.112 14.948 Q 175.728 14.62 176.152 14.076 L 176.152 14.076 L 176.152 14.076 Q 176.576 13.532 176.792 12.852 L 176.792 12.852 L 176.792 12.852 Q 177.008 12.172 177.008 11.468 L 177.008 11.468 L 177.008 11.468 Q 177.008 10.732 176.776 10.044 L 176.776 10.044 L 176.776 10.044 Q 176.544 9.356 176.12 8.828 L 176.12 8.828 L 176.12 8.828 Q 175.696 8.3 175.08 7.988 L 175.08 7.988 L 175.08 7.988 Q 174.464 7.676 173.696 7.676 L 173.696 7.676 L 173.696 7.676 Q 172.896 7.676 172.272 8.004 L 172.272 8.004 L 172.272 8.004 Q 171.648 8.332 171.232 8.868 L 171.232 8.868 L 171.232 8.868 Q 170.816 9.404 170.6 10.084 L 170.6 10.084 L 170.6 10.084 Q 170.384 10.764 170.384 11.468 Z  M 188.976 17.148 L 183.136 9.868 L 183.136 17.148 L 180.928 17.148 L 180.928 5.788 L 182.64 5.788 L 188.56 13.244 L 188.56 5.804 L 190.768 5.804 L 190.768 17.148 L 188.976 17.148 L 188.976 17.148 Z  M 192.032 17.148 L 196.368 5.788 L 198.32 5.788 L 202.64 17.148 L 200.368 17.148 L 199.312 14.316 L 195.344 14.316 L 194.304 17.148 L 192.032 17.148 L 192.032 17.148 Z  M 195.712 12.764 L 198.912 12.764 L 197.344 8.3 L 195.712 12.764 L 195.712 12.764 Z  M 211.888 17.148 L 203.888 17.148 L 203.888 5.788 L 206.096 5.788 L 206.096 15.212 L 211.888 15.212 L 211.888 17.148 L 211.888 17.148 Z  M 45.168 17.148 L 42.96 17.148 L 42.96 9.628 L 40.032 15.228 L 38.832 15.228 L 35.904 9.628 L 35.904 17.148 L 33.696 17.148 L 33.696 5.788 L 36.064 5.788 L 39.424 12.252 L 42.816 5.788 L 45.168 5.788 L 45.168 17.148 L 45.168 17.148 Z  M 46.432 17.148 L 50.768 5.788 L 52.72 5.788 L 57.04 17.148 L 54.768 17.148 L 53.712 14.316 L 49.744 14.316 L 48.704 17.148 L 46.432 17.148 L 46.432 17.148 Z  M 50.112 12.764 L 53.312 12.764 L 51.744 8.3 L 50.112 12.764 L 50.112 12.764 Z  M 66.784 5.788 L 66.784 7.724 L 63.152 7.724 L 63.152 17.148 L 60.96 17.148 L 60.96 7.724 L 57.328 7.724 L 57.328 5.788 L 66.784 5.788 L 66.784 5.788 Z  M 70.4 17.148 L 68.192 17.148 L 68.192 5.788 L 73.216 5.788 L 73.216 5.788 Q 74 5.788 74.664 6.116 L 74.664 6.116 L 74.664 6.116 Q 75.328 6.444 75.808 6.98 L 75.808 6.98 L 75.808 6.98 Q 76.288 7.516 76.56 8.196 L 76.56 8.196 L 76.56 8.196 Q 76.832 8.876 76.832 9.564 L 76.832 9.564 L 76.832 9.564 Q 76.832 10.668 76.28 11.572 L 76.28 11.572 L 76.28 11.572 Q 75.728 12.476 74.784 12.876 L 74.784 12.876 L 77.376 17.148 L 74.896 17.148 L 72.576 13.34 L 70.4 13.34 L 70.4 17.148 L 70.4 17.148 Z  M 70.4 7.724 L 70.4 11.404 L 73.168 11.404 L 73.168 11.404 Q 73.472 11.404 73.736 11.26 L 73.736 11.26 L 73.736 11.26 Q 74 11.116 74.192 10.868 L 74.192 10.868 L 74.192 10.868 Q 74.384 10.62 74.496 10.284 L 74.496 10.284 L 74.496 10.284 Q 74.608 9.948 74.608 9.564 L 74.608 9.564 L 74.608 9.564 Q 74.608 9.164 74.48 8.828 L 74.48 8.828 L 74.48 8.828 Q 74.352 8.492 74.136 8.244 L 74.136 8.244 L 74.136 8.244 Q 73.92 7.996 73.64 7.86 L 73.64 7.86 L 73.64 7.86 Q 73.36 7.724 73.072 7.724 L 73.072 7.724 L 70.4 7.724 L 70.4 7.724 Z  M 81.04 17.148 L 78.832 17.148 L 78.832 5.788 L 81.04 5.788 L 81.04 17.148 L 81.04 17.148 Z  M 81.968 2.508 L 80.48 4.828 L 79.104 4.412 L 79.968 2.508 L 81.968 2.508 L 81.968 2.508 Z  M 82.72 11.388 L 82.72 11.388 L 82.72 11.388 Q 82.72 10.348 83.096 9.332 L 83.096 9.332 L 83.096 9.332 Q 83.472 8.316 84.192 7.516 L 84.192 7.516 L 84.192 7.516 Q 84.912 6.716 85.952 6.22 L 85.952 6.22 L 85.952 6.22 Q 86.992 5.724 88.32 5.724 L 88.32 5.724 L 88.32 5.724 Q 89.888 5.724 91.032 6.412 L 91.032 6.412 L 91.032 6.412 Q 92.176 7.1 92.736 8.204 L 92.736 8.204 L 91.04 9.372 L 91.04 9.372 Q 90.816 8.892 90.496 8.564 L 90.496 8.564 L 90.496 8.564 Q 90.176 8.236 89.808 8.044 L 89.808 8.044 L 89.808 8.044 Q 89.44 7.852 89.04 7.764 L 89.04 7.764 L 89.04 7.764 Q 88.64 7.676 88.256 7.676 L 88.256 7.676 L 88.256 7.676 Q 87.424 7.676 86.808 8.012 L 86.808 8.012 L 86.808 8.012 Q 86.192 8.348 85.784 8.884 L 85.784 8.884 L 85.784 8.884 Q 85.376 9.42 85.168 10.1 L 85.168 10.1 L 85.168 10.1 Q 84.96 10.78 84.96 11.452 L 84.96 11.452 L 84.96 11.452 Q 84.96 12.204 85.2 12.9 L 85.2 12.9 L 85.2 12.9 Q 85.44 13.596 85.88 14.124 L 85.88 14.124 L 85.88 14.124 Q 86.32 14.652 86.936 14.972 L 86.936 14.972 L 86.936 14.972 Q 87.552 15.292 88.288 15.292 L 88.288 15.292 L 88.288 15.292 Q 88.672 15.292 89.088 15.196 L 89.088 15.196 L 89.088 15.196 Q 89.504 15.1 89.88 14.892 L 89.88 14.892 L 89.88 14.892 Q 90.256 14.684 90.576 14.356 L 90.576 14.356 L 90.576 14.356 Q 90.896 14.028 91.088 13.564 L 91.088 13.564 L 92.896 14.604 L 92.896 14.604 Q 92.624 15.244 92.12 15.732 L 92.12 15.732 L 92.12 15.732 Q 91.616 16.22 90.984 16.556 L 90.984 16.556 L 90.984 16.556 Q 90.352 16.892 89.632 17.068 L 89.632 17.068 L 89.632 17.068 Q 88.912 17.244 88.224 17.244 L 88.224 17.244 L 88.224 17.244 Q 87.008 17.244 86 16.732 L 86 16.732 L 86 16.732 Q 84.992 16.22 84.264 15.396 L 84.264 15.396 L 84.264 15.396 Q 83.536 14.572 83.128 13.524 L 83.128 13.524 L 83.128 13.524 Q 82.72 12.476 82.72 11.388 Z  M 99.184 15.276 L 99.184 15.276 L 99.184 15.276 Q 99.968 15.276 100.504 14.956 L 100.504 14.956 L 100.504 14.956 Q 101.04 14.636 101.368 14.124 L 101.368 14.124 L 101.368 14.124 Q 101.696 13.612 101.832 12.948 L 101.832 12.948 L 101.832 12.948 Q 101.968 12.284 101.968 11.58 L 101.968 11.58 L 101.968 5.788 L 104.16 5.788 L 104.16 11.58 L 104.16 11.58 Q 104.16 12.748 103.88 13.772 L 103.88 13.772 L 103.88 13.772 Q 103.6 14.796 103 15.564 L 103 15.564 L 103 15.564 Q 102.4 16.332 101.456 16.78 L 101.456 16.78 L 101.456 16.78 Q 100.512 17.228 99.2 17.228 L 99.2 17.228 L 99.2 17.228 Q 97.84 17.228 96.888 16.756 L 96.888 16.756 L 96.888 16.756 Q 95.936 16.284 95.344 15.508 L 95.344 15.508 L 95.344 15.508 Q 94.752 14.732 94.488 13.708 L 94.488 13.708 L 94.488 13.708 Q 94.224 12.684 94.224 11.58 L 94.224 11.58 L 94.224 5.788 L 96.432 5.788 L 96.432 11.58 L 96.432 11.58 Q 96.432 12.3 96.568 12.964 L 96.568 12.964 L 96.568 12.964 Q 96.704 13.628 97.032 14.14 L 97.032 14.14 L 97.032 14.14 Q 97.36 14.652 97.888 14.964 L 97.888 14.964 L 97.888 14.964 Q 98.416 15.276 99.184 15.276 Z  M 114.384 17.148 L 106.384 17.148 L 106.384 5.788 L 108.592 5.788 L 108.592 15.212 L 114.384 15.212 L 114.384 17.148 L 114.384 17.148 Z  M 114.624 17.148 L 118.96 5.788 L 120.912 5.788 L 125.232 17.148 L 122.96 17.148 L 121.904 14.316 L 117.936 14.316 L 116.896 17.148 L 114.624 17.148 L 114.624 17.148 Z  M 118.304 12.764 L 121.504 12.764 L 119.936 8.3 L 118.304 12.764 L 118.304 12.764 Z " fill-rule="evenodd" fill="rgb(51,51,51)"/></g></svg>