<?xml version="1.0" standalone="no"?><!-- Generator: Gravit.io --><svg xmlns="http://www.w3.org/2000/svg" xmlns:xlink="http://www.w3.org/1999/xlink" style="isolation:isolate" viewBox="0 0 450 450" width="450" height="450"><defs><clipPath id="_clipPath_WECxzyptvXQ0d5npin9vg4bvrWUMT1Wk"><rect width="450" height="450"/></clipPath></defs><g clip-path="url(#_clipPath_WECxzyptvXQ0d5npin9vg4bvrWUMT1Wk)"><path d="M 33.716 0 L 416.284 0 C 434.892 0 450 15.108 450 33.716 L 450 416.284 C 450 434.892 434.892 450 416.284 450 L 33.716 450 C 15.108 450 0 434.892 0 416.284 L 0 33.716 C 0 15.108 15.108 0 33.716 0 Z" style="stroke:none;fill:#EBEBEB;stroke-miterlimit:10;opacity:0.5;"/><defs><filter id="JYrRSZFbmbMRJ6korLYsLSqZLczEuj51" x="-200%" y="-200%" width="400%" height="400%"><feOffset xmlns="http://www.w3.org/2000/svg" in="SourceAlpha" result="offOut" dx="0" dy="2"/><feGaussianBlur xmlns="http://www.w3.org/2000/svg" in="offOut" result="blurOut" stdDeviation="2.5"/><feComponentTransfer xmlns="http://www.w3.org/2000/svg" in="blurOut" result="opacOut"><feFuncA xmlns="http://www.w3.org/2000/svg" type="table" tableValues="0 0.5"/></feComponentTransfer><feBlend xmlns="http://www.w3.org/2000/svg" in="SourceGraphic" in2="opacOut" mode="normal"/></filter></defs><g filter="url(#JYrRSZFbmbMRJ6korLYsLSqZLczEuj51)"><path d=" M 157.46 408.09 L 152.54 408.09 L 152.54 386.79 L 162.14 386.79 L 162.14 386.79 Q 163.64 386.79 164.915 387.42 L 164.915 387.42 L 164.915 387.42 Q 166.19 388.05 167.12 389.07 L 167.12 389.07 L 167.12 389.07 Q 168.05 390.09 168.575 391.38 L 168.575 391.38 L 168.575 391.38 Q 169.1 392.67 169.1 393.99 L 169.1 393.99 L 169.1 393.99 Q 169.1 394.98 168.86 395.895 L 168.86 395.895 L 168.86 395.895 Q 168.62 396.81 168.17 397.62 L 168.17 397.62 L 168.17 397.62 Q 167.72 398.43 167.075 399.075 L 167.075 399.075 L 167.075 399.075 Q 166.43 399.72 165.62 400.17 L 165.62 400.17 L 170.3 408.09 L 164.75 408.09 L 160.67 401.22 L 157.46 401.22 L 157.46 408.09 L 157.46 408.09 Z  M 157.46 391.11 L 157.46 396.93 L 161.96 396.93 L 161.96 396.93 Q 162.83 396.93 163.46 396.105 L 163.46 396.105 L 163.46 396.105 Q 164.09 395.28 164.09 393.99 L 164.09 393.99 L 164.09 393.99 Q 164.09 392.67 163.37 391.89 L 163.37 391.89 L 163.37 391.89 Q 162.65 391.11 161.81 391.11 L 161.81 391.11 L 157.46 391.11 L 157.46 391.11 Z  M 181.79 403.89 L 181.79 403.89 L 181.79 403.89 Q 183.05 403.89 183.92 403.365 L 183.92 403.365 L 183.92 403.365 Q 184.79 402.84 185.33 401.97 L 185.33 401.97 L 185.33 401.97 Q 185.87 401.1 186.095 399.975 L 186.095 399.975 L 186.095 399.975 Q 186.32 398.85 186.32 397.68 L 186.32 397.68 L 186.32 386.79 L 191.24 386.79 L 191.24 397.68 L 191.24 397.68 Q 191.24 399.9 190.685 401.82 L 190.685 401.82 L 190.685 401.82 Q 190.13 403.74 188.975 405.18 L 188.975 405.18 L 188.975 405.18 Q 187.82 406.62 186.035 407.445 L 186.035 407.445 L 186.035 407.445 Q 184.25 408.27 181.79 408.27 L 181.79 408.27 L 181.79 408.27 Q 179.24 408.27 177.44 407.4 L 177.44 407.4 L 177.44 407.4 Q 175.64 406.53 174.515 405.075 L 174.515 405.075 L 174.515 405.075 Q 173.39 403.62 172.865 401.7 L 172.865 401.7 L 172.865 401.7 Q 172.34 399.78 172.34 397.68 L 172.34 397.68 L 172.34 386.79 L 177.26 386.79 L 177.26 397.68 L 177.26 397.68 Q 177.26 398.91 177.5 400.02 L 177.5 400.02 L 177.5 400.02 Q 177.74 401.13 178.28 402 L 178.28 402 L 178.28 402 Q 178.82 402.87 179.675 403.38 L 179.675 403.38 L 179.675 403.38 Q 180.53 403.89 181.79 403.89 Z  M 216.77 408.09 L 211.85 408.09 L 211.85 395.34 L 207.23 404.61 L 204.59 404.61 L 199.97 395.34 L 199.97 408.09 L 195.05 408.09 L 195.05 386.79 L 200.39 386.79 L 205.91 397.92 L 211.46 386.79 L 216.77 386.79 L 216.77 408.09 L 216.77 408.09 Z  M 225.77 403.77 L 235.82 403.77 L 235.82 408.09 L 220.85 408.09 L 220.85 386.79 L 235.55 386.79 L 235.55 391.11 L 225.77 391.11 L 225.77 395.25 L 234.17 395.25 L 234.17 399.24 L 225.77 399.24 L 225.77 403.77 L 225.77 403.77 Z  M 255.05 386.79 L 255.05 391.11 L 248.57 391.11 L 248.57 408.09 L 243.65 408.09 L 243.65 391.11 L 237.14 391.11 L 237.14 386.79 L 255.05 386.79 L 255.05 386.79 Z  M 262.37 408.09 L 257.45 408.09 L 257.45 386.79 L 267.05 386.79 L 267.05 386.79 Q 268.55 386.79 269.825 387.42 L 269.825 387.42 L 269.825 387.42 Q 271.1 388.05 272.03 389.07 L 272.03 389.07 L 272.03 389.07 Q 272.96 390.09 273.485 391.38 L 273.485 391.38 L 273.485 391.38 Q 274.01 392.67 274.01 393.99 L 274.01 393.99 L 274.01 393.99 Q 274.01 394.98 273.77 395.895 L 273.77 395.895 L 273.77 395.895 Q 273.53 396.81 273.08 397.62 L 273.08 397.62 L 273.08 397.62 Q 272.63 398.43 271.985 399.075 L 271.985 399.075 L 271.985 399.075 Q 271.34 399.72 270.53 400.17 L 270.53 400.17 L 275.21 408.09 L 269.66 408.09 L 265.58 401.22 L 262.37 401.22 L 262.37 408.09 L 262.37 408.09 Z  M 262.37 391.11 L 262.37 396.93 L 266.87 396.93 L 266.87 396.93 Q 267.74 396.93 268.37 396.105 L 268.37 396.105 L 268.37 396.105 Q 269 395.28 269 393.99 L 269 393.99 L 269 393.99 Q 269 392.67 268.28 391.89 L 268.28 391.89 L 268.28 391.89 Q 267.56 391.11 266.72 391.11 L 266.72 391.11 L 262.37 391.11 L 262.37 391.11 Z  M 275.57 408.09 L 283.34 386.79 L 287.78 386.79 L 295.55 408.09 L 290.51 408.09 L 288.86 403.32 L 282.23 403.32 L 280.61 408.09 L 275.57 408.09 L 275.57 408.09 Z  M 283.01 399.93 L 288.05 399.93 L 285.56 392.4 L 283.01 399.93 L 283.01 399.93 Z " fill-rule="evenodd" fill="rgb(255,255,255)"/></g><clipPath id="_clipPath_EYIPBtC4iCOGSvPPxoI9xwtvnDFF3RiS"><rect x="75" y="41.5" width="300" height="300" transform="matrix(1,0,0,1,0,0)" fill="rgb(255,255,255)"/></clipPath><g clip-path="url(#_clipPath_EYIPBtC4iCOGSvPPxoI9xwtvnDFF3RiS)"><g id="Group"><rect x="180" y="41.5" width="90" height="300" transform="matrix(1,0,0,1,0,0)" fill="rgb(0,150,136)"/><rect x="180" y="41.5" width="90" height="300" transform="matrix(0,-1,1,0,33.5,416.5)" fill="rgb(0,150,136)"/><rect x="128.012" y="94.366" width="193.976" height="194.269" transform="matrix(-1,0,0,-1,449.999,383.001)" fill="rgb(0,150,136)"/><path d=" M 146.25 191.5 C 146.25 148.037 181.537 112.75 225 112.75 C 268.463 112.75 303.75 148.037 303.75 191.5 C 303.75 234.963 268.463 270.25 225 270.25 C 181.537 270.25 146.25 234.963 146.25 191.5 Z " fill="rgb(235,235,235)"/><line x1="180" y1="99.848" x2="75" y2="100.6"/></g></g></g></svg>