<?xml version="1.0" standalone="no"?><!-- Generator: Gravit.io --><svg xmlns="http://www.w3.org/2000/svg" xmlns:xlink="http://www.w3.org/1999/xlink" style="isolation:isolate" viewBox="0 0 350 350" width="350" height="350"><defs><clipPath id="_clipPath_81DZoFB0LOLxUuzOpRaXkViODoJqyZoc"><rect width="350" height="350"/></clipPath></defs><g clip-path="url(#_clipPath_81DZoFB0LOLxUuzOpRaXkViODoJqyZoc)"><path d="M 26.223 0 L 323.777 0 C 338.25 0 350 11.75 350 26.223 L 350 323.777 C 350 338.25 338.25 350 323.777 350 L 26.223 350 C 11.75 350 0 338.25 0 323.777 L 0 26.223 C 0 11.75 11.75 0 26.223 0 Z" style="stroke:none;fill:#EBEBEB;stroke-miterlimit:10;opacity:0.5;"/><defs><filter id="bWnDGMWiQJt80Mf6ERu4qrY7UViM9DTt" x="-200%" y="-200%" width="400%" height="400%"><feOffset xmlns="http://www.w3.org/2000/svg" in="SourceAlpha" result="offOut" dx="0" dy="2"/><feGaussianBlur xmlns="http://www.w3.org/2000/svg" in="offOut" result="blurOut" stdDeviation="2.5"/><feComponentTransfer xmlns="http://www.w3.org/2000/svg" in="blurOut" result="opacOut"><feFuncA xmlns="http://www.w3.org/2000/svg" type="table" tableValues="0 0.5"/></feComponentTransfer><feBlend xmlns="http://www.w3.org/2000/svg" in="SourceGraphic" in2="opacOut" mode="normal"/></filter></defs><g filter="url(#bWnDGMWiQJt80Mf6ERu4qrY7UViM9DTt)"><path d=" M 107.96 304.09 L 103.04 304.09 L 103.04 282.79 L 112.64 282.79 L 112.64 282.79 Q 114.14 282.79 115.415 283.42 L 115.415 283.42 L 115.415 283.42 Q 116.69 284.05 117.62 285.07 L 117.62 285.07 L 117.62 285.07 Q 118.55 286.09 119.075 287.38 L 119.075 287.38 L 119.075 287.38 Q 119.6 288.67 119.6 289.99 L 119.6 289.99 L 119.6 289.99 Q 119.6 290.98 119.36 291.895 L 119.36 291.895 L 119.36 291.895 Q 119.12 292.81 118.67 293.62 L 118.67 293.62 L 118.67 293.62 Q 118.22 294.43 117.575 295.075 L 117.575 295.075 L 117.575 295.075 Q 116.93 295.72 116.12 296.17 L 116.12 296.17 L 120.8 304.09 L 115.25 304.09 L 111.17 297.22 L 107.96 297.22 L 107.96 304.09 L 107.96 304.09 Z  M 107.96 287.11 L 107.96 292.93 L 112.46 292.93 L 112.46 292.93 Q 113.33 292.93 113.96 292.105 L 113.96 292.105 L 113.96 292.105 Q 114.59 291.28 114.59 289.99 L 114.59 289.99 L 114.59 289.99 Q 114.59 288.67 113.87 287.89 L 113.87 287.89 L 113.87 287.89 Q 113.15 287.11 112.31 287.11 L 112.31 287.11 L 107.96 287.11 L 107.96 287.11 Z  M 132.29 299.89 L 132.29 299.89 L 132.29 299.89 Q 133.55 299.89 134.42 299.365 L 134.42 299.365 L 134.42 299.365 Q 135.29 298.84 135.83 297.97 L 135.83 297.97 L 135.83 297.97 Q 136.37 297.1 136.595 295.975 L 136.595 295.975 L 136.595 295.975 Q 136.82 294.85 136.82 293.68 L 136.82 293.68 L 136.82 282.79 L 141.74 282.79 L 141.74 293.68 L 141.74 293.68 Q 141.74 295.9 141.185 297.82 L 141.185 297.82 L 141.185 297.82 Q 140.63 299.74 139.475 301.18 L 139.475 301.18 L 139.475 301.18 Q 138.32 302.62 136.535 303.445 L 136.535 303.445 L 136.535 303.445 Q 134.75 304.27 132.29 304.27 L 132.29 304.27 L 132.29 304.27 Q 129.74 304.27 127.94 303.4 L 127.94 303.4 L 127.94 303.4 Q 126.14 302.53 125.015 301.075 L 125.015 301.075 L 125.015 301.075 Q 123.89 299.62 123.365 297.7 L 123.365 297.7 L 123.365 297.7 Q 122.84 295.78 122.84 293.68 L 122.84 293.68 L 122.84 282.79 L 127.76 282.79 L 127.76 293.68 L 127.76 293.68 Q 127.76 294.91 128 296.02 L 128 296.02 L 128 296.02 Q 128.24 297.13 128.78 298 L 128.78 298 L 128.78 298 Q 129.32 298.87 130.175 299.38 L 130.175 299.38 L 130.175 299.38 Q 131.03 299.89 132.29 299.89 Z  M 167.27 304.09 L 162.35 304.09 L 162.35 291.34 L 157.73 300.61 L 155.09 300.61 L 150.47 291.34 L 150.47 304.09 L 145.55 304.09 L 145.55 282.79 L 150.89 282.79 L 156.41 293.92 L 161.96 282.79 L 167.27 282.79 L 167.27 304.09 L 167.27 304.09 Z  M 176.27 299.77 L 186.32 299.77 L 186.32 304.09 L 171.35 304.09 L 171.35 282.79 L 186.05 282.79 L 186.05 287.11 L 176.27 287.11 L 176.27 291.25 L 184.67 291.25 L 184.67 295.24 L 176.27 295.24 L 176.27 299.77 L 176.27 299.77 Z  M 205.55 282.79 L 205.55 287.11 L 199.07 287.11 L 199.07 304.09 L 194.15 304.09 L 194.15 287.11 L 187.64 287.11 L 187.64 282.79 L 205.55 282.79 L 205.55 282.79 Z  M 212.87 304.09 L 207.95 304.09 L 207.95 282.79 L 217.55 282.79 L 217.55 282.79 Q 219.05 282.79 220.325 283.42 L 220.325 283.42 L 220.325 283.42 Q 221.6 284.05 222.53 285.07 L 222.53 285.07 L 222.53 285.07 Q 223.46 286.09 223.985 287.38 L 223.985 287.38 L 223.985 287.38 Q 224.51 288.67 224.51 289.99 L 224.51 289.99 L 224.51 289.99 Q 224.51 290.98 224.27 291.895 L 224.27 291.895 L 224.27 291.895 Q 224.03 292.81 223.58 293.62 L 223.58 293.62 L 223.58 293.62 Q 223.13 294.43 222.485 295.075 L 222.485 295.075 L 222.485 295.075 Q 221.84 295.72 221.03 296.17 L 221.03 296.17 L 225.71 304.09 L 220.16 304.09 L 216.08 297.22 L 212.87 297.22 L 212.87 304.09 L 212.87 304.09 Z  M 212.87 287.11 L 212.87 292.93 L 217.37 292.93 L 217.37 292.93 Q 218.24 292.93 218.87 292.105 L 218.87 292.105 L 218.87 292.105 Q 219.5 291.28 219.5 289.99 L 219.5 289.99 L 219.5 289.99 Q 219.5 288.67 218.78 287.89 L 218.78 287.89 L 218.78 287.89 Q 218.06 287.11 217.22 287.11 L 217.22 287.11 L 212.87 287.11 L 212.87 287.11 Z  M 226.07 304.09 L 233.84 282.79 L 238.28 282.79 L 246.05 304.09 L 241.01 304.09 L 239.36 299.32 L 232.73 299.32 L 231.11 304.09 L 226.07 304.09 L 226.07 304.09 Z  M 233.51 295.93 L 238.55 295.93 L 236.06 288.4 L 233.51 295.93 L 233.51 295.93 Z " fill-rule="evenodd" fill="rgb(255,255,255)"/></g><clipPath id="_clipPath_3JZzgO0oJeANaIPtfTqnA9DtZe67YwLX"><rect x="75" y="35" width="200" height="200" transform="matrix(1,0,0,1,0,0)" fill="rgb(255,255,255)"/></clipPath><g clip-path="url(#_clipPath_3JZzgO0oJeANaIPtfTqnA9DtZe67YwLX)"><g id="Group"><rect x="145" y="45" width="60" height="200" transform="matrix(1,0,0,1,0,0)" fill="rgb(0,150,136)"/><rect x="145" y="45" width="60" height="200" transform="matrix(0,-1,1,0,30,320)" fill="rgb(0,150,136)"/><rect x="110.341" y="80.244" width="129.318" height="129.512" transform="matrix(-1,0,0,-1,350,290)" fill="rgb(0,150,136)"/><path d=" M 122.5 145 C 122.5 116.024 146.024 92.5 175 92.5 C 203.975 92.5 227.5 116.024 227.5 145 C 227.5 173.975 203.975 197.5 175 197.5 C 146.024 197.5 122.5 173.975 122.5 145 Z " fill="rgb(235,235,235)"/><line x1="145" y1="83.898" x2="75" y2="84.4"/></g></g></g></svg>