<?xml version="1.0" standalone="no"?><!-- Generator: Gravit.io --><svg xmlns="http://www.w3.org/2000/svg" xmlns:xlink="http://www.w3.org/1999/xlink" style="isolation:isolate" viewBox="0 0 359 23" width="359" height="23"><defs><clipPath id="_clipPath_cDklw79cWD5rYZPwgdfN5H6ONefZf5kd"><rect width="359" height="23"/></clipPath></defs><g clip-path="url(#_clipPath_cDklw79cWD5rYZPwgdfN5H6ONefZf5kd)"><path d=" M 298.972 16.155 L 298.972 7.589 L 301.638 7.589 L 301.638 7.589 Q 303.46 7.589 304.283 8.107 L 304.283 8.107 L 304.283 8.107 Q 305.106 8.626 305.106 9.757 L 305.106 9.757 L 305.106 9.757 Q 305.106 10.524 304.746 11.017 L 304.746 11.017 L 304.746 11.017 Q 304.386 11.509 303.788 11.608 L 303.788 11.608 L 303.788 11.667 L 303.788 11.667 Q 304.603 11.849 304.963 12.347 L 304.963 12.347 L 304.963 12.347 Q 305.323 12.845 305.323 13.671 L 305.323 13.671 L 305.323 13.671 Q 305.323 14.843 304.477 15.499 L 304.477 15.499 L 304.477 15.499 Q 303.63 16.155 302.177 16.155 L 302.177 16.155 L 298.972 16.155 L 298.972 16.155 Z  M 300.788 9.077 L 300.788 10.981 L 301.843 10.981 L 301.843 10.981 Q 302.581 10.981 302.912 10.753 L 302.912 10.753 L 302.912 10.753 Q 303.243 10.524 303.243 9.997 L 303.243 9.997 L 303.243 9.997 Q 303.243 9.505 302.883 9.291 L 302.883 9.291 L 302.883 9.291 Q 302.522 9.077 301.743 9.077 L 301.743 9.077 L 300.788 9.077 L 300.788 9.077 Z  M 301.913 12.423 L 300.788 12.423 L 300.788 14.655 L 301.972 14.655 L 301.972 14.655 Q 302.722 14.655 303.079 14.368 L 303.079 14.368 L 303.079 14.368 Q 303.437 14.081 303.437 13.489 L 303.437 13.489 L 303.437 13.489 Q 303.437 12.423 301.913 12.423 L 301.913 12.423 L 301.913 12.423 Z  M 308.317 12.868 L 308.317 12.868 L 308.317 12.868 Q 308.317 13.841 308.637 14.339 L 308.637 14.339 L 308.637 14.339 Q 308.956 14.837 309.677 14.837 L 309.677 14.837 L 309.677 14.837 Q 310.392 14.837 310.705 14.342 L 310.705 14.342 L 310.705 14.342 Q 311.019 13.847 311.019 12.868 L 311.019 12.868 L 311.019 12.868 Q 311.019 11.896 310.702 11.409 L 310.702 11.409 L 310.702 11.409 Q 310.386 10.923 309.665 10.923 L 309.665 10.923 L 309.665 10.923 Q 308.95 10.923 308.634 11.406 L 308.634 11.406 L 308.634 11.406 Q 308.317 11.89 308.317 12.868 Z  M 312.847 12.868 L 312.847 12.868 L 312.847 12.868 Q 312.847 14.468 312.003 15.37 L 312.003 15.37 L 312.003 15.37 Q 311.159 16.272 309.653 16.272 L 309.653 16.272 L 309.653 16.272 Q 308.71 16.272 307.989 15.859 L 307.989 15.859 L 307.989 15.859 Q 307.269 15.446 306.882 14.673 L 306.882 14.673 L 306.882 14.673 Q 306.495 13.899 306.495 12.868 L 306.495 12.868 L 306.495 12.868 Q 306.495 11.263 307.333 10.372 L 307.333 10.372 L 307.333 10.372 Q 308.171 9.481 309.688 9.481 L 309.688 9.481 L 309.688 9.481 Q 310.632 9.481 311.353 9.892 L 311.353 9.892 L 311.353 9.892 Q 312.073 10.302 312.46 11.069 L 312.46 11.069 L 312.46 11.069 Q 312.847 11.837 312.847 12.868 Z  M 316.11 7.038 L 316.11 16.155 L 314.323 16.155 L 314.323 7.038 L 316.11 7.038 L 316.11 7.038 Z  M 317.909 7.911 L 317.909 7.911 L 317.909 7.911 Q 317.909 7.038 318.882 7.038 L 318.882 7.038 L 318.882 7.038 Q 319.854 7.038 319.854 7.911 L 319.854 7.911 L 319.854 7.911 Q 319.854 8.327 319.611 8.559 L 319.611 8.559 L 319.611 8.559 Q 319.368 8.79 318.882 8.79 L 318.882 8.79 L 318.882 8.79 Q 317.909 8.79 317.909 7.911 Z  M 319.772 9.604 L 319.772 16.155 L 317.985 16.155 L 317.985 9.604 L 319.772 9.604 L 319.772 9.604 Z  M 325.04 16.155 L 323.206 16.155 L 320.71 9.604 L 322.579 9.604 L 323.845 13.337 L 323.845 13.337 Q 324.056 14.046 324.108 14.679 L 324.108 14.679 L 324.144 14.679 L 324.144 14.679 Q 324.173 14.116 324.407 13.337 L 324.407 13.337 L 325.667 9.604 L 327.536 9.604 L 325.04 16.155 L 325.04 16.155 Z  M 328.397 7.911 L 328.397 7.911 L 328.397 7.911 Q 328.397 7.038 329.37 7.038 L 329.37 7.038 L 329.37 7.038 Q 330.343 7.038 330.343 7.911 L 330.343 7.911 L 330.343 7.911 Q 330.343 8.327 330.1 8.559 L 330.1 8.559 L 330.1 8.559 Q 329.856 8.79 329.37 8.79 L 329.37 8.79 L 329.37 8.79 Q 328.397 8.79 328.397 7.911 Z  M 330.261 9.604 L 330.261 16.155 L 328.474 16.155 L 328.474 9.604 L 330.261 9.604 L 330.261 9.604 Z  M 337.544 16.155 L 336.296 16.155 L 335.95 15.265 L 335.903 15.265 L 335.903 15.265 Q 335.452 15.833 334.975 16.053 L 334.975 16.053 L 334.975 16.053 Q 334.497 16.272 333.729 16.272 L 333.729 16.272 L 333.729 16.272 Q 332.786 16.272 332.244 15.733 L 332.244 15.733 L 332.244 15.733 Q 331.702 15.194 331.702 14.198 L 331.702 14.198 L 331.702 14.198 Q 331.702 13.155 332.432 12.66 L 332.432 12.66 L 332.432 12.66 Q 333.161 12.165 334.632 12.112 L 334.632 12.112 L 335.769 12.077 L 335.769 11.79 L 335.769 11.79 Q 335.769 10.794 334.749 10.794 L 334.749 10.794 L 334.749 10.794 Q 333.964 10.794 332.903 11.269 L 332.903 11.269 L 332.312 10.062 L 332.312 10.062 Q 333.442 9.47 334.819 9.47 L 334.819 9.47 L 334.819 9.47 Q 336.138 9.47 336.841 10.044 L 336.841 10.044 L 336.841 10.044 Q 337.544 10.618 337.544 11.79 L 337.544 11.79 L 337.544 16.155 L 337.544 16.155 Z  M 335.769 13.659 L 335.769 13.12 L 335.077 13.144 L 335.077 13.144 Q 334.298 13.167 333.917 13.425 L 333.917 13.425 L 333.917 13.425 Q 333.536 13.683 333.536 14.21 L 333.536 14.21 L 333.536 14.21 Q 333.536 14.966 334.403 14.966 L 334.403 14.966 L 334.403 14.966 Q 335.024 14.966 335.396 14.608 L 335.396 14.608 L 335.396 14.608 Q 335.769 14.251 335.769 13.659 L 335.769 13.659 L 335.769 13.659 Z  M 345.431 11.884 L 345.431 16.155 L 343.644 16.155 L 343.644 12.329 L 343.644 12.329 Q 343.644 11.62 343.392 11.266 L 343.392 11.266 L 343.392 11.266 Q 343.14 10.911 342.589 10.911 L 342.589 10.911 L 342.589 10.911 Q 341.839 10.911 341.505 11.412 L 341.505 11.412 L 341.505 11.412 Q 341.171 11.913 341.171 13.073 L 341.171 13.073 L 341.171 16.155 L 339.384 16.155 L 339.384 9.604 L 340.749 9.604 L 340.989 10.442 L 341.089 10.442 L 341.089 10.442 Q 341.388 9.968 341.912 9.725 L 341.912 9.725 L 341.912 9.725 Q 342.437 9.481 343.104 9.481 L 343.104 9.481 L 343.104 9.481 Q 344.247 9.481 344.839 10.1 L 344.839 10.1 L 344.839 10.1 Q 345.431 10.718 345.431 11.884 L 345.431 11.884 L 345.431 11.884 Z  M 352.679 16.155 L 351.431 16.155 L 351.085 15.265 L 351.038 15.265 L 351.038 15.265 Q 350.587 15.833 350.109 16.053 L 350.109 16.053 L 350.109 16.053 Q 349.632 16.272 348.864 16.272 L 348.864 16.272 L 348.864 16.272 Q 347.921 16.272 347.379 15.733 L 347.379 15.733 L 347.379 15.733 Q 346.837 15.194 346.837 14.198 L 346.837 14.198 L 346.837 14.198 Q 346.837 13.155 347.566 12.66 L 347.566 12.66 L 347.566 12.66 Q 348.296 12.165 349.767 12.112 L 349.767 12.112 L 350.903 12.077 L 350.903 11.79 L 350.903 11.79 Q 350.903 10.794 349.884 10.794 L 349.884 10.794 L 349.884 10.794 Q 349.099 10.794 348.038 11.269 L 348.038 11.269 L 347.446 10.062 L 347.446 10.062 Q 348.577 9.47 349.954 9.47 L 349.954 9.47 L 349.954 9.47 Q 351.272 9.47 351.976 10.044 L 351.976 10.044 L 351.976 10.044 Q 352.679 10.618 352.679 11.79 L 352.679 11.79 L 352.679 16.155 L 352.679 16.155 Z  M 350.903 13.659 L 350.903 13.12 L 350.212 13.144 L 350.212 13.144 Q 349.433 13.167 349.052 13.425 L 349.052 13.425 L 349.052 13.425 Q 348.671 13.683 348.671 14.21 L 348.671 14.21 L 348.671 14.21 Q 348.671 14.966 349.538 14.966 L 349.538 14.966 L 349.538 14.966 Q 350.159 14.966 350.531 14.608 L 350.531 14.608 L 350.531 14.608 Q 350.903 14.251 350.903 13.659 L 350.903 13.659 L 350.903 13.659 Z  M 246.097 16.155 L 244.14 16.155 L 243.519 14.116 L 240.396 14.116 L 239.774 16.155 L 237.817 16.155 L 240.841 7.554 L 243.062 7.554 L 246.097 16.155 L 246.097 16.155 Z  M 240.853 12.593 L 243.085 12.593 L 243.085 12.593 Q 242.224 9.821 242.115 9.458 L 242.115 9.458 L 242.115 9.458 Q 242.007 9.095 241.96 8.884 L 241.96 8.884 L 241.96 8.884 Q 241.767 9.634 240.853 12.593 L 240.853 12.593 L 240.853 12.593 Z  M 253.081 11.884 L 253.081 16.155 L 251.294 16.155 L 251.294 12.329 L 251.294 12.329 Q 251.294 11.62 251.042 11.266 L 251.042 11.266 L 251.042 11.266 Q 250.79 10.911 250.239 10.911 L 250.239 10.911 L 250.239 10.911 Q 249.489 10.911 249.155 11.412 L 249.155 11.412 L 249.155 11.412 Q 248.821 11.913 248.821 13.073 L 248.821 13.073 L 248.821 16.155 L 247.034 16.155 L 247.034 9.604 L 248.399 9.604 L 248.64 10.442 L 248.739 10.442 L 248.739 10.442 Q 249.038 9.968 249.563 9.725 L 249.563 9.725 L 249.563 9.725 Q 250.087 9.481 250.755 9.481 L 250.755 9.481 L 250.755 9.481 Q 251.897 9.481 252.489 10.1 L 252.489 10.1 L 252.489 10.1 Q 253.081 10.718 253.081 11.884 L 253.081 11.884 L 253.081 11.884 Z  M 257.581 16.272 L 257.581 16.272 L 257.581 16.272 Q 254.522 16.272 254.522 12.915 L 254.522 12.915 L 254.522 12.915 Q 254.522 11.245 255.354 10.363 L 255.354 10.363 L 255.354 10.363 Q 256.187 9.481 257.739 9.481 L 257.739 9.481 L 257.739 9.481 Q 258.876 9.481 259.778 9.927 L 259.778 9.927 L 259.251 11.31 L 259.251 11.31 Q 258.829 11.14 258.466 11.031 L 258.466 11.031 L 258.466 11.031 Q 258.103 10.923 257.739 10.923 L 257.739 10.923 L 257.739 10.923 Q 256.345 10.923 256.345 12.903 L 256.345 12.903 L 256.345 12.903 Q 256.345 14.825 257.739 14.825 L 257.739 14.825 L 257.739 14.825 Q 258.255 14.825 258.694 14.688 L 258.694 14.688 L 258.694 14.688 Q 259.134 14.55 259.573 14.257 L 259.573 14.257 L 259.573 15.786 L 259.573 15.786 Q 259.14 16.062 258.697 16.167 L 258.697 16.167 L 258.697 16.167 Q 258.255 16.272 257.581 16.272 Z  M 263.804 10.753 L 263.804 10.753 L 263.804 10.753 Q 263.235 10.753 262.913 11.113 L 262.913 11.113 L 262.913 11.113 Q 262.591 11.474 262.544 12.136 L 262.544 12.136 L 265.052 12.136 L 265.052 12.136 Q 265.04 11.474 264.706 11.113 L 264.706 11.113 L 264.706 11.113 Q 264.372 10.753 263.804 10.753 Z  M 264.056 16.272 L 264.056 16.272 L 264.056 16.272 Q 262.474 16.272 261.583 15.399 L 261.583 15.399 L 261.583 15.399 Q 260.692 14.526 260.692 12.927 L 260.692 12.927 L 260.692 12.927 Q 260.692 11.28 261.516 10.381 L 261.516 10.381 L 261.516 10.381 Q 262.339 9.481 263.792 9.481 L 263.792 9.481 L 263.792 9.481 Q 265.181 9.481 265.954 10.272 L 265.954 10.272 L 265.954 10.272 Q 266.728 11.063 266.728 12.458 L 266.728 12.458 L 266.728 13.325 L 262.503 13.325 L 262.503 13.325 Q 262.532 14.087 262.954 14.515 L 262.954 14.515 L 262.954 14.515 Q 263.376 14.942 264.138 14.942 L 264.138 14.942 L 264.138 14.942 Q 264.729 14.942 265.257 14.819 L 265.257 14.819 L 265.257 14.819 Q 265.784 14.696 266.358 14.427 L 266.358 14.427 L 266.358 15.81 L 266.358 15.81 Q 265.89 16.044 265.356 16.158 L 265.356 16.158 L 265.356 16.158 Q 264.823 16.272 264.056 16.272 Z  M 272.751 14.21 L 272.751 14.21 L 272.751 14.21 Q 272.751 15.218 272.051 15.745 L 272.051 15.745 L 272.051 15.745 Q 271.351 16.272 269.956 16.272 L 269.956 16.272 L 269.956 16.272 Q 269.241 16.272 268.737 16.176 L 268.737 16.176 L 268.737 16.176 Q 268.233 16.079 267.794 15.892 L 267.794 15.892 L 267.794 14.415 L 267.794 14.415 Q 268.292 14.649 268.916 14.808 L 268.916 14.808 L 268.916 14.808 Q 269.54 14.966 270.015 14.966 L 270.015 14.966 L 270.015 14.966 Q 270.987 14.966 270.987 14.403 L 270.987 14.403 L 270.987 14.403 Q 270.987 14.192 270.858 14.061 L 270.858 14.061 L 270.858 14.061 Q 270.729 13.929 270.413 13.762 L 270.413 13.762 L 270.413 13.762 Q 270.097 13.595 269.569 13.372 L 269.569 13.372 L 269.569 13.372 Q 268.813 13.056 268.459 12.786 L 268.459 12.786 L 268.459 12.786 Q 268.104 12.517 267.943 12.168 L 267.943 12.168 L 267.943 12.168 Q 267.782 11.819 267.782 11.31 L 267.782 11.31 L 267.782 11.31 Q 267.782 10.437 268.459 9.959 L 268.459 9.959 L 268.459 9.959 Q 269.136 9.481 270.378 9.481 L 270.378 9.481 L 270.378 9.481 Q 271.562 9.481 272.681 9.997 L 272.681 9.997 L 272.142 11.286 L 272.142 11.286 Q 271.649 11.075 271.222 10.94 L 271.222 10.94 L 271.222 10.94 Q 270.794 10.806 270.349 10.806 L 270.349 10.806 L 270.349 10.806 Q 269.558 10.806 269.558 11.233 L 269.558 11.233 L 269.558 11.233 Q 269.558 11.474 269.813 11.649 L 269.813 11.649 L 269.813 11.649 Q 270.067 11.825 270.929 12.171 L 270.929 12.171 L 270.929 12.171 Q 271.696 12.481 272.054 12.751 L 272.054 12.751 L 272.054 12.751 Q 272.411 13.021 272.581 13.372 L 272.581 13.372 L 272.581 13.372 Q 272.751 13.724 272.751 14.21 Z  M 276.905 14.849 L 276.905 14.849 L 276.905 14.849 Q 277.374 14.849 278.03 14.644 L 278.03 14.644 L 278.03 15.974 L 278.03 15.974 Q 277.362 16.272 276.39 16.272 L 276.39 16.272 L 276.39 16.272 Q 275.317 16.272 274.828 15.73 L 274.828 15.73 L 274.828 15.73 Q 274.339 15.188 274.339 14.104 L 274.339 14.104 L 274.339 10.946 L 273.483 10.946 L 273.483 10.19 L 274.468 9.593 L 274.983 8.21 L 276.126 8.21 L 276.126 9.604 L 277.96 9.604 L 277.96 10.946 L 276.126 10.946 L 276.126 14.104 L 276.126 14.104 Q 276.126 14.485 276.34 14.667 L 276.34 14.667 L 276.34 14.667 Q 276.554 14.849 276.905 14.849 Z  M 283.011 9.481 L 283.011 9.481 L 283.011 9.481 Q 283.374 9.481 283.614 9.534 L 283.614 9.534 L 283.479 11.21 L 283.479 11.21 Q 283.263 11.151 282.952 11.151 L 282.952 11.151 L 282.952 11.151 Q 282.097 11.151 281.619 11.591 L 281.619 11.591 L 281.619 11.591 Q 281.142 12.03 281.142 12.821 L 281.142 12.821 L 281.142 16.155 L 279.354 16.155 L 279.354 9.604 L 280.708 9.604 L 280.972 10.706 L 281.06 10.706 L 281.06 10.706 Q 281.364 10.155 281.883 9.818 L 281.883 9.818 L 281.883 9.818 Q 282.401 9.481 283.011 9.481 Z  M 290.212 16.155 L 288.964 16.155 L 288.618 15.265 L 288.571 15.265 L 288.571 15.265 Q 288.12 15.833 287.643 16.053 L 287.643 16.053 L 287.643 16.053 Q 287.165 16.272 286.397 16.272 L 286.397 16.272 L 286.397 16.272 Q 285.454 16.272 284.912 15.733 L 284.912 15.733 L 284.912 15.733 Q 284.37 15.194 284.37 14.198 L 284.37 14.198 L 284.37 14.198 Q 284.37 13.155 285.1 12.66 L 285.1 12.66 L 285.1 12.66 Q 285.829 12.165 287.3 12.112 L 287.3 12.112 L 288.437 12.077 L 288.437 11.79 L 288.437 11.79 Q 288.437 10.794 287.417 10.794 L 287.417 10.794 L 287.417 10.794 Q 286.632 10.794 285.571 11.269 L 285.571 11.269 L 284.979 10.062 L 284.979 10.062 Q 286.11 9.47 287.487 9.47 L 287.487 9.47 L 287.487 9.47 Q 288.806 9.47 289.509 10.044 L 289.509 10.044 L 289.509 10.044 Q 290.212 10.618 290.212 11.79 L 290.212 11.79 L 290.212 16.155 L 290.212 16.155 Z  M 288.437 13.659 L 288.437 13.12 L 287.745 13.144 L 287.745 13.144 Q 286.966 13.167 286.585 13.425 L 286.585 13.425 L 286.585 13.425 Q 286.204 13.683 286.204 14.21 L 286.204 14.21 L 286.204 14.21 Q 286.204 14.966 287.071 14.966 L 287.071 14.966 L 287.071 14.966 Q 287.692 14.966 288.064 14.608 L 288.064 14.608 L 288.064 14.608 Q 288.437 14.251 288.437 13.659 L 288.437 13.659 L 288.437 13.659 Z  M 293.839 7.038 L 293.839 16.155 L 292.052 16.155 L 292.052 7.038 L 293.839 7.038 L 293.839 7.038 Z  M 172.122 9.101 L 172.122 16.155 L 170.306 16.155 L 170.306 9.101 L 167.979 9.101 L 167.979 7.589 L 174.448 7.589 L 174.448 9.101 L 172.122 9.101 L 172.122 9.101 Z  M 179.282 9.481 L 179.282 9.481 L 179.282 9.481 Q 179.646 9.481 179.886 9.534 L 179.886 9.534 L 179.751 11.21 L 179.751 11.21 Q 179.534 11.151 179.224 11.151 L 179.224 11.151 L 179.224 11.151 Q 178.368 11.151 177.891 11.591 L 177.891 11.591 L 177.891 11.591 Q 177.413 12.03 177.413 12.821 L 177.413 12.821 L 177.413 16.155 L 175.626 16.155 L 175.626 9.604 L 176.979 9.604 L 177.243 10.706 L 177.331 10.706 L 177.331 10.706 Q 177.636 10.155 178.154 9.818 L 178.154 9.818 L 178.154 9.818 Q 178.673 9.481 179.282 9.481 Z  M 186.483 16.155 L 185.235 16.155 L 184.89 15.265 L 184.843 15.265 L 184.843 15.265 Q 184.392 15.833 183.914 16.053 L 183.914 16.053 L 183.914 16.053 Q 183.437 16.272 182.669 16.272 L 182.669 16.272 L 182.669 16.272 Q 181.726 16.272 181.184 15.733 L 181.184 15.733 L 181.184 15.733 Q 180.642 15.194 180.642 14.198 L 180.642 14.198 L 180.642 14.198 Q 180.642 13.155 181.371 12.66 L 181.371 12.66 L 181.371 12.66 Q 182.101 12.165 183.571 12.112 L 183.571 12.112 L 184.708 12.077 L 184.708 11.79 L 184.708 11.79 Q 184.708 10.794 183.688 10.794 L 183.688 10.794 L 183.688 10.794 Q 182.903 10.794 181.843 11.269 L 181.843 11.269 L 181.251 10.062 L 181.251 10.062 Q 182.382 9.47 183.759 9.47 L 183.759 9.47 L 183.759 9.47 Q 185.077 9.47 185.78 10.044 L 185.78 10.044 L 185.78 10.044 Q 186.483 10.618 186.483 11.79 L 186.483 11.79 L 186.483 16.155 L 186.483 16.155 Z  M 184.708 13.659 L 184.708 13.12 L 184.017 13.144 L 184.017 13.144 Q 183.237 13.167 182.856 13.425 L 182.856 13.425 L 182.856 13.425 Q 182.476 13.683 182.476 14.21 L 182.476 14.21 L 182.476 14.21 Q 182.476 14.966 183.343 14.966 L 183.343 14.966 L 183.343 14.966 Q 183.964 14.966 184.336 14.608 L 184.336 14.608 L 184.336 14.608 Q 184.708 14.251 184.708 13.659 L 184.708 13.659 L 184.708 13.659 Z  M 190.397 16.272 L 190.397 16.272 L 190.397 16.272 Q 189.243 16.272 188.584 15.376 L 188.584 15.376 L 188.584 15.376 Q 187.925 14.479 187.925 12.892 L 187.925 12.892 L 187.925 12.892 Q 187.925 11.28 188.596 10.381 L 188.596 10.381 L 188.596 10.381 Q 189.267 9.481 190.444 9.481 L 190.444 9.481 L 190.444 9.481 Q 191.681 9.481 192.331 10.442 L 192.331 10.442 L 192.39 10.442 L 192.39 10.442 Q 192.255 9.71 192.255 9.136 L 192.255 9.136 L 192.255 7.038 L 194.048 7.038 L 194.048 16.155 L 192.677 16.155 L 192.331 15.306 L 192.255 15.306 L 192.255 15.306 Q 191.646 16.272 190.397 16.272 Z  M 191.024 14.849 L 191.024 14.849 L 191.024 14.849 Q 191.71 14.849 192.029 14.45 L 192.029 14.45 L 192.029 14.45 Q 192.349 14.052 192.378 13.097 L 192.378 13.097 L 192.378 12.903 L 192.378 12.903 Q 192.378 11.849 192.053 11.392 L 192.053 11.392 L 192.053 11.392 Q 191.728 10.935 190.995 10.935 L 190.995 10.935 L 190.995 10.935 Q 190.397 10.935 190.066 11.441 L 190.066 11.441 L 190.066 11.441 Q 189.735 11.948 189.735 12.915 L 189.735 12.915 L 189.735 12.915 Q 189.735 13.882 190.069 14.365 L 190.069 14.365 L 190.069 14.365 Q 190.403 14.849 191.024 14.849 Z  M 195.841 7.911 L 195.841 7.911 L 195.841 7.911 Q 195.841 7.038 196.813 7.038 L 196.813 7.038 L 196.813 7.038 Q 197.786 7.038 197.786 7.911 L 197.786 7.911 L 197.786 7.911 Q 197.786 8.327 197.543 8.559 L 197.543 8.559 L 197.543 8.559 Q 197.3 8.79 196.813 8.79 L 196.813 8.79 L 196.813 8.79 Q 195.841 8.79 195.841 7.911 Z  M 197.704 9.604 L 197.704 16.155 L 195.917 16.155 L 195.917 9.604 L 197.704 9.604 L 197.704 9.604 Z  M 202.239 16.272 L 202.239 16.272 L 202.239 16.272 Q 199.181 16.272 199.181 12.915 L 199.181 12.915 L 199.181 12.915 Q 199.181 11.245 200.013 10.363 L 200.013 10.363 L 200.013 10.363 Q 200.845 9.481 202.397 9.481 L 202.397 9.481 L 202.397 9.481 Q 203.534 9.481 204.437 9.927 L 204.437 9.927 L 203.909 11.31 L 203.909 11.31 Q 203.487 11.14 203.124 11.031 L 203.124 11.031 L 203.124 11.031 Q 202.761 10.923 202.397 10.923 L 202.397 10.923 L 202.397 10.923 Q 201.003 10.923 201.003 12.903 L 201.003 12.903 L 201.003 12.903 Q 201.003 14.825 202.397 14.825 L 202.397 14.825 L 202.397 14.825 Q 202.913 14.825 203.353 14.688 L 203.353 14.688 L 203.353 14.688 Q 203.792 14.55 204.231 14.257 L 204.231 14.257 L 204.231 15.786 L 204.231 15.786 Q 203.798 16.062 203.355 16.167 L 203.355 16.167 L 203.355 16.167 Q 202.913 16.272 202.239 16.272 Z  M 205.673 7.911 L 205.673 7.911 L 205.673 7.911 Q 205.673 7.038 206.646 7.038 L 206.646 7.038 L 206.646 7.038 Q 207.618 7.038 207.618 7.911 L 207.618 7.911 L 207.618 7.911 Q 207.618 8.327 207.375 8.559 L 207.375 8.559 L 207.375 8.559 Q 207.132 8.79 206.646 8.79 L 206.646 8.79 L 206.646 8.79 Q 205.673 8.79 205.673 7.911 Z  M 207.536 9.604 L 207.536 16.155 L 205.749 16.155 L 205.749 9.604 L 207.536 9.604 L 207.536 9.604 Z  M 210.835 12.868 L 210.835 12.868 L 210.835 12.868 Q 210.835 13.841 211.154 14.339 L 211.154 14.339 L 211.154 14.339 Q 211.474 14.837 212.194 14.837 L 212.194 14.837 L 212.194 14.837 Q 212.909 14.837 213.223 14.342 L 213.223 14.342 L 213.223 14.342 Q 213.536 13.847 213.536 12.868 L 213.536 12.868 L 213.536 12.868 Q 213.536 11.896 213.22 11.409 L 213.22 11.409 L 213.22 11.409 Q 212.903 10.923 212.183 10.923 L 212.183 10.923 L 212.183 10.923 Q 211.468 10.923 211.151 11.406 L 211.151 11.406 L 211.151 11.406 Q 210.835 11.89 210.835 12.868 Z  M 215.364 12.868 L 215.364 12.868 L 215.364 12.868 Q 215.364 14.468 214.521 15.37 L 214.521 15.37 L 214.521 15.37 Q 213.677 16.272 212.171 16.272 L 212.171 16.272 L 212.171 16.272 Q 211.228 16.272 210.507 15.859 L 210.507 15.859 L 210.507 15.859 Q 209.786 15.446 209.399 14.673 L 209.399 14.673 L 209.399 14.673 Q 209.013 13.899 209.013 12.868 L 209.013 12.868 L 209.013 12.868 Q 209.013 11.263 209.851 10.372 L 209.851 10.372 L 209.851 10.372 Q 210.688 9.481 212.206 9.481 L 212.206 9.481 L 212.206 9.481 Q 213.149 9.481 213.87 9.892 L 213.87 9.892 L 213.87 9.892 Q 214.591 10.302 214.978 11.069 L 214.978 11.069 L 214.978 11.069 Q 215.364 11.837 215.364 12.868 Z  M 222.888 11.884 L 222.888 16.155 L 221.101 16.155 L 221.101 12.329 L 221.101 12.329 Q 221.101 11.62 220.849 11.266 L 220.849 11.266 L 220.849 11.266 Q 220.597 10.911 220.046 10.911 L 220.046 10.911 L 220.046 10.911 Q 219.296 10.911 218.962 11.412 L 218.962 11.412 L 218.962 11.412 Q 218.628 11.913 218.628 13.073 L 218.628 13.073 L 218.628 16.155 L 216.841 16.155 L 216.841 9.604 L 218.206 9.604 L 218.446 10.442 L 218.546 10.442 L 218.546 10.442 Q 218.845 9.968 219.369 9.725 L 219.369 9.725 L 219.369 9.725 Q 219.894 9.481 220.562 9.481 L 220.562 9.481 L 220.562 9.481 Q 221.704 9.481 222.296 10.1 L 222.296 10.1 L 222.296 10.1 Q 222.888 10.718 222.888 11.884 L 222.888 11.884 L 222.888 11.884 Z  M 230.136 16.155 L 228.888 16.155 L 228.542 15.265 L 228.495 15.265 L 228.495 15.265 Q 228.044 15.833 227.566 16.053 L 227.566 16.053 L 227.566 16.053 Q 227.089 16.272 226.321 16.272 L 226.321 16.272 L 226.321 16.272 Q 225.378 16.272 224.836 15.733 L 224.836 15.733 L 224.836 15.733 Q 224.294 15.194 224.294 14.198 L 224.294 14.198 L 224.294 14.198 Q 224.294 13.155 225.023 12.66 L 225.023 12.66 L 225.023 12.66 Q 225.753 12.165 227.224 12.112 L 227.224 12.112 L 228.36 12.077 L 228.36 11.79 L 228.36 11.79 Q 228.36 10.794 227.341 10.794 L 227.341 10.794 L 227.341 10.794 Q 226.556 10.794 225.495 11.269 L 225.495 11.269 L 224.903 10.062 L 224.903 10.062 Q 226.034 9.47 227.411 9.47 L 227.411 9.47 L 227.411 9.47 Q 228.729 9.47 229.433 10.044 L 229.433 10.044 L 229.433 10.044 Q 230.136 10.618 230.136 11.79 L 230.136 11.79 L 230.136 16.155 L 230.136 16.155 Z  M 228.36 13.659 L 228.36 13.12 L 227.669 13.144 L 227.669 13.144 Q 226.89 13.167 226.509 13.425 L 226.509 13.425 L 226.509 13.425 Q 226.128 13.683 226.128 14.21 L 226.128 14.21 L 226.128 14.21 Q 226.128 14.966 226.995 14.966 L 226.995 14.966 L 226.995 14.966 Q 227.616 14.966 227.988 14.608 L 227.988 14.608 L 227.988 14.608 Q 228.36 14.251 228.36 13.659 L 228.36 13.659 L 228.36 13.659 Z  M 233.763 7.038 L 233.763 16.155 L 231.976 16.155 L 231.976 7.038 L 233.763 7.038 L 233.763 7.038 Z  M 116.364 16.155 L 114.7 16.155 L 112.638 9.435 L 112.585 9.435 L 112.585 9.435 Q 112.696 11.485 112.696 12.171 L 112.696 12.171 L 112.696 16.155 L 111.073 16.155 L 111.073 7.589 L 113.546 7.589 L 115.573 14.14 L 115.608 14.14 L 117.759 7.589 L 120.231 7.589 L 120.231 16.155 L 118.538 16.155 L 118.538 12.101 L 118.538 12.101 Q 118.538 11.813 118.547 11.438 L 118.547 11.438 L 118.547 11.438 Q 118.556 11.063 118.626 9.446 L 118.626 9.446 L 118.573 9.446 L 116.364 16.155 L 116.364 16.155 Z  M 124.96 10.753 L 124.96 10.753 L 124.96 10.753 Q 124.392 10.753 124.069 11.113 L 124.069 11.113 L 124.069 11.113 Q 123.747 11.474 123.7 12.136 L 123.7 12.136 L 126.208 12.136 L 126.208 12.136 Q 126.196 11.474 125.862 11.113 L 125.862 11.113 L 125.862 11.113 Q 125.528 10.753 124.96 10.753 Z  M 125.212 16.272 L 125.212 16.272 L 125.212 16.272 Q 123.63 16.272 122.739 15.399 L 122.739 15.399 L 122.739 15.399 Q 121.849 14.526 121.849 12.927 L 121.849 12.927 L 121.849 12.927 Q 121.849 11.28 122.672 10.381 L 122.672 10.381 L 122.672 10.381 Q 123.495 9.481 124.948 9.481 L 124.948 9.481 L 124.948 9.481 Q 126.337 9.481 127.11 10.272 L 127.11 10.272 L 127.11 10.272 Q 127.884 11.063 127.884 12.458 L 127.884 12.458 L 127.884 13.325 L 123.659 13.325 L 123.659 13.325 Q 123.688 14.087 124.11 14.515 L 124.11 14.515 L 124.11 14.515 Q 124.532 14.942 125.294 14.942 L 125.294 14.942 L 125.294 14.942 Q 125.886 14.942 126.413 14.819 L 126.413 14.819 L 126.413 14.819 Q 126.94 14.696 127.515 14.427 L 127.515 14.427 L 127.515 15.81 L 127.515 15.81 Q 127.046 16.044 126.513 16.158 L 126.513 16.158 L 126.513 16.158 Q 125.979 16.272 125.212 16.272 Z  M 131.411 16.272 L 131.411 16.272 L 131.411 16.272 Q 130.257 16.272 129.598 15.376 L 129.598 15.376 L 129.598 15.376 Q 128.938 14.479 128.938 12.892 L 128.938 12.892 L 128.938 12.892 Q 128.938 11.28 129.609 10.381 L 129.609 10.381 L 129.609 10.381 Q 130.28 9.481 131.458 9.481 L 131.458 9.481 L 131.458 9.481 Q 132.694 9.481 133.345 10.442 L 133.345 10.442 L 133.403 10.442 L 133.403 10.442 Q 133.269 9.71 133.269 9.136 L 133.269 9.136 L 133.269 7.038 L 135.062 7.038 L 135.062 16.155 L 133.69 16.155 L 133.345 15.306 L 133.269 15.306 L 133.269 15.306 Q 132.659 16.272 131.411 16.272 Z  M 132.038 14.849 L 132.038 14.849 L 132.038 14.849 Q 132.724 14.849 133.043 14.45 L 133.043 14.45 L 133.043 14.45 Q 133.362 14.052 133.392 13.097 L 133.392 13.097 L 133.392 12.903 L 133.392 12.903 Q 133.392 11.849 133.066 11.392 L 133.066 11.392 L 133.066 11.392 Q 132.741 10.935 132.009 10.935 L 132.009 10.935 L 132.009 10.935 Q 131.411 10.935 131.08 11.441 L 131.08 11.441 L 131.08 11.441 Q 130.749 11.948 130.749 12.915 L 130.749 12.915 L 130.749 12.915 Q 130.749 13.882 131.083 14.365 L 131.083 14.365 L 131.083 14.365 Q 131.417 14.849 132.038 14.849 Z  M 136.854 7.911 L 136.854 7.911 L 136.854 7.911 Q 136.854 7.038 137.827 7.038 L 137.827 7.038 L 137.827 7.038 Q 138.8 7.038 138.8 7.911 L 138.8 7.911 L 138.8 7.911 Q 138.8 8.327 138.557 8.559 L 138.557 8.559 L 138.557 8.559 Q 138.313 8.79 137.827 8.79 L 137.827 8.79 L 137.827 8.79 Q 136.854 8.79 136.854 7.911 Z  M 138.718 9.604 L 138.718 16.155 L 136.931 16.155 L 136.931 9.604 L 138.718 9.604 L 138.718 9.604 Z  M 143.253 16.272 L 143.253 16.272 L 143.253 16.272 Q 140.194 16.272 140.194 12.915 L 140.194 12.915 L 140.194 12.915 Q 140.194 11.245 141.026 10.363 L 141.026 10.363 L 141.026 10.363 Q 141.858 9.481 143.411 9.481 L 143.411 9.481 L 143.411 9.481 Q 144.548 9.481 145.45 9.927 L 145.45 9.927 L 144.923 11.31 L 144.923 11.31 Q 144.501 11.14 144.138 11.031 L 144.138 11.031 L 144.138 11.031 Q 143.774 10.923 143.411 10.923 L 143.411 10.923 L 143.411 10.923 Q 142.017 10.923 142.017 12.903 L 142.017 12.903 L 142.017 12.903 Q 142.017 14.825 143.411 14.825 L 143.411 14.825 L 143.411 14.825 Q 143.927 14.825 144.366 14.688 L 144.366 14.688 L 144.366 14.688 Q 144.806 14.55 145.245 14.257 L 145.245 14.257 L 145.245 15.786 L 145.245 15.786 Q 144.812 16.062 144.369 16.167 L 144.369 16.167 L 144.369 16.167 Q 143.927 16.272 143.253 16.272 Z  M 146.687 7.911 L 146.687 7.911 L 146.687 7.911 Q 146.687 7.038 147.659 7.038 L 147.659 7.038 L 147.659 7.038 Q 148.632 7.038 148.632 7.911 L 148.632 7.911 L 148.632 7.911 Q 148.632 8.327 148.389 8.559 L 148.389 8.559 L 148.389 8.559 Q 148.146 8.79 147.659 8.79 L 147.659 8.79 L 147.659 8.79 Q 146.687 8.79 146.687 7.911 Z  M 148.55 9.604 L 148.55 16.155 L 146.763 16.155 L 146.763 9.604 L 148.55 9.604 L 148.55 9.604 Z  M 156.472 11.884 L 156.472 16.155 L 154.685 16.155 L 154.685 12.329 L 154.685 12.329 Q 154.685 11.62 154.433 11.266 L 154.433 11.266 L 154.433 11.266 Q 154.181 10.911 153.63 10.911 L 153.63 10.911 L 153.63 10.911 Q 152.88 10.911 152.546 11.412 L 152.546 11.412 L 152.546 11.412 Q 152.212 11.913 152.212 13.073 L 152.212 13.073 L 152.212 16.155 L 150.425 16.155 L 150.425 9.604 L 151.79 9.604 L 152.03 10.442 L 152.13 10.442 L 152.13 10.442 Q 152.429 9.968 152.953 9.725 L 152.953 9.725 L 152.953 9.725 Q 153.478 9.481 154.146 9.481 L 154.146 9.481 L 154.146 9.481 Q 155.288 9.481 155.88 10.1 L 155.88 10.1 L 155.88 10.1 Q 156.472 10.718 156.472 11.884 L 156.472 11.884 L 156.472 11.884 Z  M 163.72 16.155 L 162.472 16.155 L 162.126 15.265 L 162.079 15.265 L 162.079 15.265 Q 161.628 15.833 161.15 16.053 L 161.15 16.053 L 161.15 16.053 Q 160.673 16.272 159.905 16.272 L 159.905 16.272 L 159.905 16.272 Q 158.962 16.272 158.42 15.733 L 158.42 15.733 L 158.42 15.733 Q 157.878 15.194 157.878 14.198 L 157.878 14.198 L 157.878 14.198 Q 157.878 13.155 158.607 12.66 L 158.607 12.66 L 158.607 12.66 Q 159.337 12.165 160.808 12.112 L 160.808 12.112 L 161.944 12.077 L 161.944 11.79 L 161.944 11.79 Q 161.944 10.794 160.925 10.794 L 160.925 10.794 L 160.925 10.794 Q 160.14 10.794 159.079 11.269 L 159.079 11.269 L 158.487 10.062 L 158.487 10.062 Q 159.618 9.47 160.995 9.47 L 160.995 9.47 L 160.995 9.47 Q 162.313 9.47 163.017 10.044 L 163.017 10.044 L 163.017 10.044 Q 163.72 10.618 163.72 11.79 L 163.72 11.79 L 163.72 16.155 L 163.72 16.155 Z  M 161.944 13.659 L 161.944 13.12 L 161.253 13.144 L 161.253 13.144 Q 160.474 13.167 160.093 13.425 L 160.093 13.425 L 160.093 13.425 Q 159.712 13.683 159.712 14.21 L 159.712 14.21 L 159.712 14.21 Q 159.712 14.966 160.579 14.966 L 160.579 14.966 L 160.579 14.966 Q 161.2 14.966 161.572 14.608 L 161.572 14.608 L 161.572 14.608 Q 161.944 14.251 161.944 13.659 L 161.944 13.659 L 161.944 13.659 Z  M 95.206 16.272 L 95.206 16.272 L 95.206 16.272 Q 94.052 16.272 93.393 15.376 L 93.393 15.376 L 93.393 15.376 Q 92.733 14.479 92.733 12.892 L 92.733 12.892 L 92.733 12.892 Q 92.733 11.28 93.404 10.381 L 93.404 10.381 L 93.404 10.381 Q 94.075 9.481 95.253 9.481 L 95.253 9.481 L 95.253 9.481 Q 96.489 9.481 97.14 10.442 L 97.14 10.442 L 97.198 10.442 L 97.198 10.442 Q 97.063 9.71 97.063 9.136 L 97.063 9.136 L 97.063 7.038 L 98.856 7.038 L 98.856 16.155 L 97.485 16.155 L 97.14 15.306 L 97.063 15.306 L 97.063 15.306 Q 96.454 16.272 95.206 16.272 Z  M 95.833 14.849 L 95.833 14.849 L 95.833 14.849 Q 96.519 14.849 96.838 14.45 L 96.838 14.45 L 96.838 14.45 Q 97.157 14.052 97.187 13.097 L 97.187 13.097 L 97.187 12.903 L 97.187 12.903 Q 97.187 11.849 96.861 11.392 L 96.861 11.392 L 96.861 11.392 Q 96.536 10.935 95.804 10.935 L 95.804 10.935 L 95.804 10.935 Q 95.206 10.935 94.875 11.441 L 94.875 11.441 L 94.875 11.441 Q 94.544 11.948 94.544 12.915 L 94.544 12.915 L 94.544 12.915 Q 94.544 13.882 94.878 14.365 L 94.878 14.365 L 94.878 14.365 Q 95.212 14.849 95.833 14.849 Z  M 103.438 10.753 L 103.438 10.753 L 103.438 10.753 Q 102.87 10.753 102.548 11.113 L 102.548 11.113 L 102.548 11.113 Q 102.226 11.474 102.179 12.136 L 102.179 12.136 L 104.687 12.136 L 104.687 12.136 Q 104.675 11.474 104.341 11.113 L 104.341 11.113 L 104.341 11.113 Q 104.007 10.753 103.438 10.753 Z  M 103.69 16.272 L 103.69 16.272 L 103.69 16.272 Q 102.108 16.272 101.218 15.399 L 101.218 15.399 L 101.218 15.399 Q 100.327 14.526 100.327 12.927 L 100.327 12.927 L 100.327 12.927 Q 100.327 11.28 101.15 10.381 L 101.15 10.381 L 101.15 10.381 Q 101.974 9.481 103.427 9.481 L 103.427 9.481 L 103.427 9.481 Q 104.815 9.481 105.589 10.272 L 105.589 10.272 L 105.589 10.272 Q 106.362 11.063 106.362 12.458 L 106.362 12.458 L 106.362 13.325 L 102.138 13.325 L 102.138 13.325 Q 102.167 14.087 102.589 14.515 L 102.589 14.515 L 102.589 14.515 Q 103.011 14.942 103.772 14.942 L 103.772 14.942 L 103.772 14.942 Q 104.364 14.942 104.892 14.819 L 104.892 14.819 L 104.892 14.819 Q 105.419 14.696 105.993 14.427 L 105.993 14.427 L 105.993 15.81 L 105.993 15.81 Q 105.524 16.044 104.991 16.158 L 104.991 16.158 L 104.991 16.158 Q 104.458 16.272 103.69 16.272 Z  M 62.991 16.155 L 61.62 16.155 L 61.38 15.317 L 61.286 15.317 L 61.286 15.317 Q 60.999 15.774 60.472 16.023 L 60.472 16.023 L 60.472 16.023 Q 59.944 16.272 59.271 16.272 L 59.271 16.272 L 59.271 16.272 Q 58.116 16.272 57.53 15.654 L 57.53 15.654 L 57.53 15.654 Q 56.944 15.036 56.944 13.876 L 56.944 13.876 L 56.944 9.604 L 58.731 9.604 L 58.731 13.431 L 58.731 13.431 Q 58.731 14.14 58.983 14.494 L 58.983 14.494 L 58.983 14.494 Q 59.235 14.849 59.786 14.849 L 59.786 14.849 L 59.786 14.849 Q 60.536 14.849 60.87 14.348 L 60.87 14.348 L 60.87 14.348 Q 61.204 13.847 61.204 12.687 L 61.204 12.687 L 61.204 9.604 L 62.991 9.604 L 62.991 16.155 L 62.991 16.155 Z  M 60.149 8.884 L 58.96 8.884 L 58.96 8.726 L 58.96 8.726 Q 59.968 7.554 60.337 6.962 L 60.337 6.962 L 62.341 6.962 L 62.341 7.085 L 62.341 7.085 Q 62.036 7.39 61.301 7.99 L 61.301 7.99 L 61.301 7.99 Q 60.565 8.591 60.149 8.884 L 60.149 8.884 L 60.149 8.884 Z  M 70.913 11.884 L 70.913 16.155 L 69.126 16.155 L 69.126 12.329 L 69.126 12.329 Q 69.126 11.62 68.874 11.266 L 68.874 11.266 L 68.874 11.266 Q 68.622 10.911 68.071 10.911 L 68.071 10.911 L 68.071 10.911 Q 67.321 10.911 66.987 11.412 L 66.987 11.412 L 66.987 11.412 Q 66.653 11.913 66.653 13.073 L 66.653 13.073 L 66.653 16.155 L 64.866 16.155 L 64.866 9.604 L 66.231 9.604 L 66.472 10.442 L 66.571 10.442 L 66.571 10.442 Q 66.87 9.968 67.395 9.725 L 67.395 9.725 L 67.395 9.725 Q 67.919 9.481 68.587 9.481 L 68.587 9.481 L 68.587 9.481 Q 69.729 9.481 70.321 10.1 L 70.321 10.1 L 70.321 10.1 Q 70.913 10.718 70.913 11.884 L 70.913 11.884 L 70.913 11.884 Z  M 72.677 7.911 L 72.677 7.911 L 72.677 7.911 Q 72.677 7.038 73.649 7.038 L 73.649 7.038 L 73.649 7.038 Q 74.622 7.038 74.622 7.911 L 74.622 7.911 L 74.622 7.911 Q 74.622 8.327 74.379 8.559 L 74.379 8.559 L 74.379 8.559 Q 74.136 8.79 73.649 8.79 L 73.649 8.79 L 73.649 8.79 Q 72.677 8.79 72.677 7.911 Z  M 74.54 9.604 L 74.54 16.155 L 72.753 16.155 L 72.753 9.604 L 74.54 9.604 L 74.54 9.604 Z  M 79.075 16.272 L 79.075 16.272 L 79.075 16.272 Q 76.017 16.272 76.017 12.915 L 76.017 12.915 L 76.017 12.915 Q 76.017 11.245 76.849 10.363 L 76.849 10.363 L 76.849 10.363 Q 77.681 9.481 79.233 9.481 L 79.233 9.481 L 79.233 9.481 Q 80.37 9.481 81.272 9.927 L 81.272 9.927 L 80.745 11.31 L 80.745 11.31 Q 80.323 11.14 79.96 11.031 L 79.96 11.031 L 79.96 11.031 Q 79.597 10.923 79.233 10.923 L 79.233 10.923 L 79.233 10.923 Q 77.839 10.923 77.839 12.903 L 77.839 12.903 L 77.839 12.903 Q 77.839 14.825 79.233 14.825 L 79.233 14.825 L 79.233 14.825 Q 79.749 14.825 80.188 14.688 L 80.188 14.688 L 80.188 14.688 Q 80.628 14.55 81.067 14.257 L 81.067 14.257 L 81.067 15.786 L 81.067 15.786 Q 80.634 16.062 80.191 16.167 L 80.191 16.167 L 80.191 16.167 Q 79.749 16.272 79.075 16.272 Z  M 84.009 12.868 L 84.009 12.868 L 84.009 12.868 Q 84.009 13.841 84.328 14.339 L 84.328 14.339 L 84.328 14.339 Q 84.647 14.837 85.368 14.837 L 85.368 14.837 L 85.368 14.837 Q 86.083 14.837 86.396 14.342 L 86.396 14.342 L 86.396 14.342 Q 86.71 13.847 86.71 12.868 L 86.71 12.868 L 86.71 12.868 Q 86.71 11.896 86.394 11.409 L 86.394 11.409 L 86.394 11.409 Q 86.077 10.923 85.356 10.923 L 85.356 10.923 L 85.356 10.923 Q 84.642 10.923 84.325 11.406 L 84.325 11.406 L 84.325 11.406 Q 84.009 11.89 84.009 12.868 Z  M 88.538 12.868 L 88.538 12.868 L 88.538 12.868 Q 88.538 14.468 87.694 15.37 L 87.694 15.37 L 87.694 15.37 Q 86.851 16.272 85.345 16.272 L 85.345 16.272 L 85.345 16.272 Q 84.401 16.272 83.681 15.859 L 83.681 15.859 L 83.681 15.859 Q 82.96 15.446 82.573 14.673 L 82.573 14.673 L 82.573 14.673 Q 82.187 13.899 82.187 12.868 L 82.187 12.868 L 82.187 12.868 Q 82.187 11.263 83.024 10.372 L 83.024 10.372 L 83.024 10.372 Q 83.862 9.481 85.38 9.481 L 85.38 9.481 L 85.38 9.481 Q 86.323 9.481 87.044 9.892 L 87.044 9.892 L 87.044 9.892 Q 87.765 10.302 88.151 11.069 L 88.151 11.069 L 88.151 11.069 Q 88.538 11.837 88.538 12.868 Z  M 6.313 9.077 L 6.313 11.392 L 6.899 11.392 L 6.899 11.392 Q 7.761 11.392 8.171 11.104 L 8.171 11.104 L 8.171 11.104 Q 8.581 10.817 8.581 10.202 L 8.581 10.202 L 8.581 10.202 Q 8.581 9.593 8.162 9.335 L 8.162 9.335 L 8.162 9.335 Q 7.743 9.077 6.864 9.077 L 6.864 9.077 L 6.313 9.077 L 6.313 9.077 Z  M 7.28 12.868 L 6.313 12.868 L 6.313 16.155 L 4.497 16.155 L 4.497 7.589 L 6.993 7.589 L 6.993 7.589 Q 8.739 7.589 9.577 8.225 L 9.577 8.225 L 9.577 8.225 Q 10.415 8.86 10.415 10.155 L 10.415 10.155 L 10.415 10.155 Q 10.415 10.911 9.999 11.5 L 9.999 11.5 L 9.999 11.5 Q 9.583 12.089 8.821 12.423 L 8.821 12.423 L 8.821 12.423 Q 10.755 15.312 11.341 16.155 L 11.341 16.155 L 9.325 16.155 L 7.28 12.868 L 7.28 12.868 Z  M 14.991 10.753 L 14.991 10.753 L 14.991 10.753 Q 14.423 10.753 14.101 11.113 L 14.101 11.113 L 14.101 11.113 Q 13.778 11.474 13.731 12.136 L 13.731 12.136 L 16.239 12.136 L 16.239 12.136 Q 16.228 11.474 15.894 11.113 L 15.894 11.113 L 15.894 11.113 Q 15.56 10.753 14.991 10.753 Z  M 15.243 16.272 L 15.243 16.272 L 15.243 16.272 Q 13.661 16.272 12.771 15.399 L 12.771 15.399 L 12.771 15.399 Q 11.88 14.526 11.88 12.927 L 11.88 12.927 L 11.88 12.927 Q 11.88 11.28 12.703 10.381 L 12.703 10.381 L 12.703 10.381 Q 13.526 9.481 14.979 9.481 L 14.979 9.481 L 14.979 9.481 Q 16.368 9.481 17.142 10.272 L 17.142 10.272 L 17.142 10.272 Q 17.915 11.063 17.915 12.458 L 17.915 12.458 L 17.915 13.325 L 13.69 13.325 L 13.69 13.325 Q 13.72 14.087 14.142 14.515 L 14.142 14.515 L 14.142 14.515 Q 14.563 14.942 15.325 14.942 L 15.325 14.942 L 15.325 14.942 Q 15.917 14.942 16.444 14.819 L 16.444 14.819 L 16.444 14.819 Q 16.972 14.696 17.546 14.427 L 17.546 14.427 L 17.546 15.81 L 17.546 15.81 Q 17.077 16.044 16.544 16.158 L 16.544 16.158 L 16.544 16.158 Q 16.011 16.272 15.243 16.272 Z  M 22.784 9.604 L 25.069 9.604 L 25.069 10.513 L 24.044 10.776 L 24.044 10.776 Q 24.325 11.216 24.325 11.761 L 24.325 11.761 L 24.325 11.761 Q 24.325 12.815 23.59 13.404 L 23.59 13.404 L 23.59 13.404 Q 22.854 13.993 21.548 13.993 L 21.548 13.993 L 21.226 13.976 L 20.962 13.946 L 20.962 13.946 Q 20.687 14.157 20.687 14.415 L 20.687 14.415 L 20.687 14.415 Q 20.687 14.802 21.671 14.802 L 21.671 14.802 L 22.784 14.802 L 22.784 14.802 Q 23.862 14.802 24.428 15.265 L 24.428 15.265 L 24.428 15.265 Q 24.993 15.728 24.993 16.624 L 24.993 16.624 L 24.993 16.624 Q 24.993 17.772 24.035 18.405 L 24.035 18.405 L 24.035 18.405 Q 23.077 19.038 21.284 19.038 L 21.284 19.038 L 21.284 19.038 Q 19.913 19.038 19.189 18.561 L 19.189 18.561 L 19.189 18.561 Q 18.466 18.083 18.466 17.222 L 18.466 17.222 L 18.466 17.222 Q 18.466 16.63 18.835 16.231 L 18.835 16.231 L 18.835 16.231 Q 19.204 15.833 19.919 15.663 L 19.919 15.663 L 19.919 15.663 Q 19.644 15.546 19.438 15.279 L 19.438 15.279 L 19.438 15.279 Q 19.233 15.013 19.233 14.714 L 19.233 14.714 L 19.233 14.714 Q 19.233 14.339 19.45 14.09 L 19.45 14.09 L 19.45 14.09 Q 19.667 13.841 20.077 13.601 L 20.077 13.601 L 20.077 13.601 Q 19.562 13.378 19.26 12.886 L 19.26 12.886 L 19.26 12.886 Q 18.958 12.394 18.958 11.726 L 18.958 11.726 L 18.958 11.726 Q 18.958 10.653 19.655 10.067 L 19.655 10.067 L 19.655 10.067 Q 20.353 9.481 21.647 9.481 L 21.647 9.481 L 21.647 9.481 Q 21.923 9.481 22.301 9.531 L 22.301 9.531 L 22.301 9.531 Q 22.679 9.581 22.784 9.604 L 22.784 9.604 L 22.784 9.604 Z  M 20.013 17.081 L 20.013 17.081 L 20.013 17.081 Q 20.013 17.45 20.367 17.661 L 20.367 17.661 L 20.367 17.661 Q 20.722 17.872 21.36 17.872 L 21.36 17.872 L 21.36 17.872 Q 22.321 17.872 22.866 17.608 L 22.866 17.608 L 22.866 17.608 Q 23.411 17.345 23.411 16.888 L 23.411 16.888 L 23.411 16.888 Q 23.411 16.519 23.089 16.378 L 23.089 16.378 L 23.089 16.378 Q 22.767 16.237 22.093 16.237 L 22.093 16.237 L 21.167 16.237 L 21.167 16.237 Q 20.675 16.237 20.344 16.469 L 20.344 16.469 L 20.344 16.469 Q 20.013 16.7 20.013 17.081 Z  M 20.663 11.749 L 20.663 11.749 L 20.663 11.749 Q 20.663 12.282 20.906 12.593 L 20.906 12.593 L 20.906 12.593 Q 21.149 12.903 21.647 12.903 L 21.647 12.903 L 21.647 12.903 Q 22.151 12.903 22.386 12.593 L 22.386 12.593 L 22.386 12.593 Q 22.62 12.282 22.62 11.749 L 22.62 11.749 L 22.62 11.749 Q 22.62 10.565 21.647 10.565 L 21.647 10.565 L 21.647 10.565 Q 20.663 10.565 20.663 11.749 Z  M 26.071 7.911 L 26.071 7.911 L 26.071 7.911 Q 26.071 7.038 27.044 7.038 L 27.044 7.038 L 27.044 7.038 Q 28.017 7.038 28.017 7.911 L 28.017 7.911 L 28.017 7.911 Q 28.017 8.327 27.773 8.559 L 27.773 8.559 L 27.773 8.559 Q 27.53 8.79 27.044 8.79 L 27.044 8.79 L 27.044 8.79 Q 26.071 8.79 26.071 7.911 Z  M 27.935 9.604 L 27.935 16.155 L 26.147 16.155 L 26.147 9.604 L 27.935 9.604 L 27.935 9.604 Z  M 34.38 14.21 L 34.38 14.21 L 34.38 14.21 Q 34.38 15.218 33.68 15.745 L 33.68 15.745 L 33.68 15.745 Q 32.979 16.272 31.585 16.272 L 31.585 16.272 L 31.585 16.272 Q 30.87 16.272 30.366 16.176 L 30.366 16.176 L 30.366 16.176 Q 29.862 16.079 29.423 15.892 L 29.423 15.892 L 29.423 14.415 L 29.423 14.415 Q 29.921 14.649 30.545 14.808 L 30.545 14.808 L 30.545 14.808 Q 31.169 14.966 31.644 14.966 L 31.644 14.966 L 31.644 14.966 Q 32.616 14.966 32.616 14.403 L 32.616 14.403 L 32.616 14.403 Q 32.616 14.192 32.487 14.061 L 32.487 14.061 L 32.487 14.061 Q 32.358 13.929 32.042 13.762 L 32.042 13.762 L 32.042 13.762 Q 31.726 13.595 31.198 13.372 L 31.198 13.372 L 31.198 13.372 Q 30.442 13.056 30.088 12.786 L 30.088 12.786 L 30.088 12.786 Q 29.733 12.517 29.572 12.168 L 29.572 12.168 L 29.572 12.168 Q 29.411 11.819 29.411 11.31 L 29.411 11.31 L 29.411 11.31 Q 29.411 10.437 30.088 9.959 L 30.088 9.959 L 30.088 9.959 Q 30.765 9.481 32.007 9.481 L 32.007 9.481 L 32.007 9.481 Q 33.19 9.481 34.31 9.997 L 34.31 9.997 L 33.771 11.286 L 33.771 11.286 Q 33.278 11.075 32.851 10.94 L 32.851 10.94 L 32.851 10.94 Q 32.423 10.806 31.978 10.806 L 31.978 10.806 L 31.978 10.806 Q 31.187 10.806 31.187 11.233 L 31.187 11.233 L 31.187 11.233 Q 31.187 11.474 31.441 11.649 L 31.441 11.649 L 31.441 11.649 Q 31.696 11.825 32.558 12.171 L 32.558 12.171 L 32.558 12.171 Q 33.325 12.481 33.683 12.751 L 33.683 12.751 L 33.683 12.751 Q 34.04 13.021 34.21 13.372 L 34.21 13.372 L 34.21 13.372 Q 34.38 13.724 34.38 14.21 Z  M 38.534 14.849 L 38.534 14.849 L 38.534 14.849 Q 39.003 14.849 39.659 14.644 L 39.659 14.644 L 39.659 15.974 L 39.659 15.974 Q 38.991 16.272 38.019 16.272 L 38.019 16.272 L 38.019 16.272 Q 36.946 16.272 36.457 15.73 L 36.457 15.73 L 36.457 15.73 Q 35.968 15.188 35.968 14.104 L 35.968 14.104 L 35.968 10.946 L 35.112 10.946 L 35.112 10.19 L 36.097 9.593 L 36.612 8.21 L 37.755 8.21 L 37.755 9.604 L 39.589 9.604 L 39.589 10.946 L 37.755 10.946 L 37.755 14.104 L 37.755 14.104 Q 37.755 14.485 37.969 14.667 L 37.969 14.667 L 37.969 14.667 Q 38.183 14.849 38.534 14.849 Z  M 44.64 9.481 L 44.64 9.481 L 44.64 9.481 Q 45.003 9.481 45.243 9.534 L 45.243 9.534 L 45.108 11.21 L 45.108 11.21 Q 44.892 11.151 44.581 11.151 L 44.581 11.151 L 44.581 11.151 Q 43.726 11.151 43.248 11.591 L 43.248 11.591 L 43.248 11.591 Q 42.771 12.03 42.771 12.821 L 42.771 12.821 L 42.771 16.155 L 40.983 16.155 L 40.983 9.604 L 42.337 9.604 L 42.601 10.706 L 42.688 10.706 L 42.688 10.706 Q 42.993 10.155 43.512 9.818 L 43.512 9.818 L 43.512 9.818 Q 44.03 9.481 44.64 9.481 Z  M 47.856 12.868 L 47.856 12.868 L 47.856 12.868 Q 47.856 13.841 48.176 14.339 L 48.176 14.339 L 48.176 14.339 Q 48.495 14.837 49.216 14.837 L 49.216 14.837 L 49.216 14.837 Q 49.931 14.837 50.244 14.342 L 50.244 14.342 L 50.244 14.342 Q 50.558 13.847 50.558 12.868 L 50.558 12.868 L 50.558 12.868 Q 50.558 11.896 50.241 11.409 L 50.241 11.409 L 50.241 11.409 Q 49.925 10.923 49.204 10.923 L 49.204 10.923 L 49.204 10.923 Q 48.489 10.923 48.173 11.406 L 48.173 11.406 L 48.173 11.406 Q 47.856 11.89 47.856 12.868 Z  M 52.386 12.868 L 52.386 12.868 L 52.386 12.868 Q 52.386 14.468 51.542 15.37 L 51.542 15.37 L 51.542 15.37 Q 50.698 16.272 49.192 16.272 L 49.192 16.272 L 49.192 16.272 Q 48.249 16.272 47.528 15.859 L 47.528 15.859 L 47.528 15.859 Q 46.808 15.446 46.421 14.673 L 46.421 14.673 L 46.421 14.673 Q 46.034 13.899 46.034 12.868 L 46.034 12.868 L 46.034 12.868 Q 46.034 11.263 46.872 10.372 L 46.872 10.372 L 46.872 10.372 Q 47.71 9.481 49.228 9.481 L 49.228 9.481 L 49.228 9.481 Q 50.171 9.481 50.892 9.892 L 50.892 9.892 L 50.892 9.892 Q 51.612 10.302 51.999 11.069 L 51.999 11.069 L 51.999 11.069 Q 52.386 11.837 52.386 12.868 Z " fill-rule="evenodd" fill="rgb(51,51,51)"/></g></svg>